<?xml version="1.0" encoding="UTF-8"?>
<svg xmlns="http://www.w3.org/2000/svg" xmlns:xlink="http://www.w3.org/1999/xlink" width="504pt" height="504pt" viewBox="0 0 504 504" version="1.1">
<g id="surface14">
<rect x="0" y="0" width="504" height="504" style="fill:rgb(100%,100%,100%);fill-opacity:1;stroke:none;"/>
<path style="fill:none;stroke-width:6.40187;stroke-linecap:butt;stroke-linejoin:round;stroke:rgb(90.196078%,25.490196%,45.098039%);stroke-opacity:0.298039;stroke-miterlimit:10;" d="M 0 428.480469 L 504 75.886719 "/>
<path style="fill:none;stroke-width:0.708661;stroke-linecap:round;stroke-linejoin:round;stroke:rgb(18.431373%,30.980392%,30.980392%);stroke-opacity:1;stroke-miterlimit:10;" d="M 287.625 226.851562 C 287.625 230.585938 284.601562 233.609375 280.871094 233.609375 C 277.136719 233.609375 274.113281 230.585938 274.113281 226.851562 C 274.113281 223.121094 277.136719 220.097656 280.871094 220.097656 C 284.601562 220.097656 287.625 223.121094 287.625 226.851562 "/>
<path style="fill:none;stroke-width:0.708661;stroke-linecap:round;stroke-linejoin:round;stroke:rgb(18.431373%,30.980392%,30.980392%);stroke-opacity:1;stroke-miterlimit:10;" d="M 215.964844 333.679688 C 215.964844 337.410156 212.941406 340.433594 209.210938 340.433594 C 205.476562 340.433594 202.453125 337.410156 202.453125 333.679688 C 202.453125 329.945312 205.476562 326.921875 209.210938 326.921875 C 212.941406 326.921875 215.964844 329.945312 215.964844 333.679688 "/>
<path style="fill:none;stroke-width:0.708661;stroke-linecap:round;stroke-linejoin:round;stroke:rgb(18.431373%,30.980392%,30.980392%);stroke-opacity:1;stroke-miterlimit:10;" d="M 212.464844 224.113281 C 212.464844 227.84375 209.4375 230.871094 205.707031 230.871094 C 201.976562 230.871094 198.949219 227.84375 198.949219 224.113281 C 198.949219 220.382812 201.976562 217.359375 205.707031 217.359375 C 209.4375 217.359375 212.464844 220.382812 212.464844 224.113281 "/>
<path style="fill-rule:nonzero;fill:rgb(18.431373%,30.980392%,30.980392%);fill-opacity:1;stroke-width:0.708661;stroke-linecap:round;stroke-linejoin:round;stroke:rgb(18.431373%,30.980392%,30.980392%);stroke-opacity:1;stroke-miterlimit:10;" d="M 330.179688 155.75 C 330.179688 159.480469 327.152344 162.503906 323.421875 162.503906 C 319.691406 162.503906 316.664062 159.480469 316.664062 155.75 C 316.664062 152.019531 319.691406 148.992188 323.421875 148.992188 C 327.152344 148.992188 330.179688 152.019531 330.179688 155.75 "/>
<path style="fill-rule:nonzero;fill:rgb(18.431373%,30.980392%,30.980392%);fill-opacity:1;stroke-width:0.708661;stroke-linecap:round;stroke-linejoin:round;stroke:rgb(18.431373%,30.980392%,30.980392%);stroke-opacity:1;stroke-miterlimit:10;" d="M 219.78125 349.109375 C 219.78125 352.839844 216.757812 355.863281 213.027344 355.863281 C 209.296875 355.863281 206.269531 352.839844 206.269531 349.109375 C 206.269531 345.375 209.296875 342.351562 213.027344 342.351562 C 216.757812 342.351562 219.78125 345.375 219.78125 349.109375 "/>
<path style="fill-rule:nonzero;fill:rgb(18.431373%,30.980392%,30.980392%);fill-opacity:1;stroke-width:0.708661;stroke-linecap:round;stroke-linejoin:round;stroke:rgb(18.431373%,30.980392%,30.980392%);stroke-opacity:1;stroke-miterlimit:10;" d="M 308.605469 140.707031 C 308.605469 144.4375 305.582031 147.460938 301.847656 147.460938 C 298.117188 147.460938 295.09375 144.4375 295.09375 140.707031 C 295.09375 136.976562 298.117188 133.949219 301.847656 133.949219 C 305.582031 133.949219 308.605469 136.976562 308.605469 140.707031 "/>
<path style="fill:none;stroke-width:0.708661;stroke-linecap:round;stroke-linejoin:round;stroke:rgb(18.431373%,30.980392%,30.980392%);stroke-opacity:1;stroke-miterlimit:10;" d="M 267.683594 209.503906 C 267.683594 213.238281 264.660156 216.261719 260.929688 216.261719 C 257.199219 216.261719 254.171875 213.238281 254.171875 209.503906 C 254.171875 205.773438 257.199219 202.75 260.929688 202.75 C 264.660156 202.75 267.683594 205.773438 267.683594 209.503906 "/>
<path style="fill:none;stroke-width:0.708661;stroke-linecap:round;stroke-linejoin:round;stroke:rgb(18.431373%,30.980392%,30.980392%);stroke-opacity:1;stroke-miterlimit:10;" d="M 279.96875 305.726562 C 279.96875 309.457031 276.945312 312.480469 273.214844 312.480469 C 269.480469 312.480469 266.457031 309.457031 266.457031 305.726562 C 266.457031 301.992188 269.480469 298.96875 273.214844 298.96875 C 276.945312 298.96875 279.96875 301.992188 279.96875 305.726562 "/>
<path style="fill-rule:nonzero;fill:rgb(18.431373%,30.980392%,30.980392%);fill-opacity:1;stroke-width:0.708661;stroke-linecap:round;stroke-linejoin:round;stroke:rgb(18.431373%,30.980392%,30.980392%);stroke-opacity:1;stroke-miterlimit:10;" d="M 280.339844 211.15625 C 280.339844 214.890625 277.316406 217.914062 273.585938 217.914062 C 269.851562 217.914062 266.828125 214.890625 266.828125 211.15625 C 266.828125 207.425781 269.851562 204.402344 273.585938 204.402344 C 277.316406 204.402344 280.339844 207.425781 280.339844 211.15625 "/>
<path style="fill:none;stroke-width:0.708661;stroke-linecap:round;stroke-linejoin:round;stroke:rgb(18.431373%,30.980392%,30.980392%);stroke-opacity:1;stroke-miterlimit:10;" d="M 358.777344 200.097656 C 358.777344 203.828125 355.753906 206.855469 352.019531 206.855469 C 348.289062 206.855469 345.265625 203.828125 345.265625 200.097656 C 345.265625 196.367188 348.289062 193.34375 352.019531 193.34375 C 355.753906 193.34375 358.777344 196.367188 358.777344 200.097656 "/>
<path style="fill-rule:nonzero;fill:rgb(18.431373%,30.980392%,30.980392%);fill-opacity:1;stroke-width:0.708661;stroke-linecap:round;stroke-linejoin:round;stroke:rgb(18.431373%,30.980392%,30.980392%);stroke-opacity:1;stroke-miterlimit:10;" d="M 337.109375 139.097656 C 337.109375 142.832031 334.082031 145.855469 330.351562 145.855469 C 326.621094 145.855469 323.597656 142.832031 323.597656 139.097656 C 323.597656 135.367188 326.621094 132.34375 330.351562 132.34375 C 334.082031 132.34375 337.109375 135.367188 337.109375 139.097656 "/>
<path style="fill-rule:nonzero;fill:rgb(18.431373%,30.980392%,30.980392%);fill-opacity:1;stroke-width:0.708661;stroke-linecap:round;stroke-linejoin:round;stroke:rgb(18.431373%,30.980392%,30.980392%);stroke-opacity:1;stroke-miterlimit:10;" d="M 336.203125 24.273438 C 336.203125 28.003906 333.175781 31.027344 329.445312 31.027344 C 325.714844 31.027344 322.691406 28.003906 322.691406 24.273438 C 322.691406 20.539062 325.714844 17.515625 329.445312 17.515625 C 333.175781 17.515625 336.203125 20.539062 336.203125 24.273438 "/>
<path style="fill:none;stroke-width:0.708661;stroke-linecap:round;stroke-linejoin:round;stroke:rgb(18.431373%,30.980392%,30.980392%);stroke-opacity:1;stroke-miterlimit:10;" d="M 220.886719 329.574219 C 220.886719 333.308594 217.859375 336.332031 214.128906 336.332031 C 210.398438 336.332031 207.375 333.308594 207.375 329.574219 C 207.375 325.84375 210.398438 322.820312 214.128906 322.820312 C 217.859375 322.820312 220.886719 325.84375 220.886719 329.574219 "/>
<path style="fill:none;stroke-width:0.708661;stroke-linecap:round;stroke-linejoin:round;stroke:rgb(18.431373%,30.980392%,30.980392%);stroke-opacity:1;stroke-miterlimit:10;" d="M 328.867188 137.210938 C 328.867188 140.941406 325.84375 143.964844 322.113281 143.964844 C 318.378906 143.964844 315.355469 140.941406 315.355469 137.210938 C 315.355469 133.480469 318.378906 130.453125 322.113281 130.453125 C 325.84375 130.453125 328.867188 133.480469 328.867188 137.210938 "/>
<path style="fill:none;stroke-width:0.708661;stroke-linecap:round;stroke-linejoin:round;stroke:rgb(18.431373%,30.980392%,30.980392%);stroke-opacity:1;stroke-miterlimit:10;" d="M 149.863281 470.078125 C 149.863281 473.8125 146.839844 476.835938 143.105469 476.835938 C 139.375 476.835938 136.351562 473.8125 136.351562 470.078125 C 136.351562 466.347656 139.375 463.324219 143.105469 463.324219 C 146.839844 463.324219 149.863281 466.347656 149.863281 470.078125 "/>
<path style="fill-rule:nonzero;fill:rgb(18.431373%,30.980392%,30.980392%);fill-opacity:1;stroke-width:0.708661;stroke-linecap:round;stroke-linejoin:round;stroke:rgb(18.431373%,30.980392%,30.980392%);stroke-opacity:1;stroke-miterlimit:10;" d="M 420.519531 194.695312 C 420.519531 198.425781 417.496094 201.453125 413.761719 201.453125 C 410.03125 201.453125 407.007812 198.425781 407.007812 194.695312 C 407.007812 190.964844 410.03125 187.9375 413.761719 187.9375 C 417.496094 187.9375 420.519531 190.964844 420.519531 194.695312 "/>
<path style="fill-rule:nonzero;fill:rgb(18.431373%,30.980392%,30.980392%);fill-opacity:1;stroke-width:0.708661;stroke-linecap:round;stroke-linejoin:round;stroke:rgb(18.431373%,30.980392%,30.980392%);stroke-opacity:1;stroke-miterlimit:10;" d="M 397.441406 210.230469 C 397.441406 213.960938 394.414062 216.984375 390.683594 216.984375 C 386.953125 216.984375 383.925781 213.960938 383.925781 210.230469 C 383.925781 206.496094 386.953125 203.472656 390.683594 203.472656 C 394.414062 203.472656 397.441406 206.496094 397.441406 210.230469 "/>
<path style="fill:none;stroke-width:0.708661;stroke-linecap:round;stroke-linejoin:round;stroke:rgb(18.431373%,30.980392%,30.980392%);stroke-opacity:1;stroke-miterlimit:10;" d="M 189.195312 341.082031 C 189.195312 344.816406 186.171875 347.839844 182.441406 347.839844 C 178.707031 347.839844 175.683594 344.816406 175.683594 341.082031 C 175.683594 337.351562 178.707031 334.328125 182.441406 334.328125 C 186.171875 334.328125 189.195312 337.351562 189.195312 341.082031 "/>
<path style="fill:none;stroke-width:0.708661;stroke-linecap:round;stroke-linejoin:round;stroke:rgb(18.431373%,30.980392%,30.980392%);stroke-opacity:1;stroke-miterlimit:10;" d="M 319.464844 210.324219 C 319.464844 214.058594 316.4375 217.082031 312.707031 217.082031 C 308.976562 217.082031 305.949219 214.058594 305.949219 210.324219 C 305.949219 206.59375 308.976562 203.570312 312.707031 203.570312 C 316.4375 203.570312 319.464844 206.59375 319.464844 210.324219 "/>
<path style="fill:none;stroke-width:0.708661;stroke-linecap:round;stroke-linejoin:round;stroke:rgb(18.431373%,30.980392%,30.980392%);stroke-opacity:1;stroke-miterlimit:10;" d="M 178.933594 317.992188 C 178.933594 321.722656 175.910156 324.746094 172.179688 324.746094 C 168.449219 324.746094 165.421875 321.722656 165.421875 317.992188 C 165.421875 314.261719 168.449219 311.234375 172.179688 311.234375 C 175.910156 311.234375 178.933594 314.261719 178.933594 317.992188 "/>
<path style="fill-rule:nonzero;fill:rgb(18.431373%,30.980392%,30.980392%);fill-opacity:1;stroke-width:0.708661;stroke-linecap:round;stroke-linejoin:round;stroke:rgb(18.431373%,30.980392%,30.980392%);stroke-opacity:1;stroke-miterlimit:10;" d="M 383.898438 250.761719 C 383.898438 254.492188 380.871094 257.515625 377.140625 257.515625 C 373.410156 257.515625 370.386719 254.492188 370.386719 250.761719 C 370.386719 247.027344 373.410156 244.003906 377.140625 244.003906 C 380.871094 244.003906 383.898438 247.027344 383.898438 250.761719 "/>
<path style="fill:none;stroke-width:0.708661;stroke-linecap:round;stroke-linejoin:round;stroke:rgb(18.431373%,30.980392%,30.980392%);stroke-opacity:1;stroke-miterlimit:10;" d="M 369.191406 206.945312 C 369.191406 210.679688 366.167969 213.703125 362.4375 213.703125 C 358.707031 213.703125 355.679688 210.679688 355.679688 206.945312 C 355.679688 203.214844 358.707031 200.191406 362.4375 200.191406 C 366.167969 200.191406 369.191406 203.214844 369.191406 206.945312 "/>
<path style="fill:none;stroke-width:0.708661;stroke-linecap:round;stroke-linejoin:round;stroke:rgb(18.431373%,30.980392%,30.980392%);stroke-opacity:1;stroke-miterlimit:10;" d="M 426.007812 22.910156 C 426.007812 26.640625 422.984375 29.664062 419.253906 29.664062 C 415.519531 29.664062 412.496094 26.640625 412.496094 22.910156 C 412.496094 19.179688 415.519531 16.152344 419.253906 16.152344 C 422.984375 16.152344 426.007812 19.179688 426.007812 22.910156 "/>
<path style="fill:none;stroke-width:0.708661;stroke-linecap:round;stroke-linejoin:round;stroke:rgb(18.431373%,30.980392%,30.980392%);stroke-opacity:1;stroke-miterlimit:10;" d="M 322.789062 73.757812 C 322.789062 77.488281 319.765625 80.511719 316.03125 80.511719 C 312.300781 80.511719 309.277344 77.488281 309.277344 73.757812 C 309.277344 70.023438 312.300781 67 316.03125 67 C 319.765625 67 322.789062 70.023438 322.789062 73.757812 "/>
<path style="fill:none;stroke-width:0.708661;stroke-linecap:round;stroke-linejoin:round;stroke:rgb(18.431373%,30.980392%,30.980392%);stroke-opacity:1;stroke-miterlimit:10;" d="M 401.535156 136.609375 C 401.535156 140.34375 398.507812 143.367188 394.777344 143.367188 C 391.046875 143.367188 388.023438 140.34375 388.023438 136.609375 C 388.023438 132.878906 391.046875 129.855469 394.777344 129.855469 C 398.507812 129.855469 401.535156 132.878906 401.535156 136.609375 "/>
<path style="fill:none;stroke-width:0.708661;stroke-linecap:round;stroke-linejoin:round;stroke:rgb(18.431373%,30.980392%,30.980392%);stroke-opacity:1;stroke-miterlimit:10;" d="M 323.1875 140.808594 C 323.1875 144.539062 320.160156 147.5625 316.429688 147.5625 C 312.699219 147.5625 309.671875 144.539062 309.671875 140.808594 C 309.671875 137.078125 312.699219 134.050781 316.429688 134.050781 C 320.160156 134.050781 323.1875 137.078125 323.1875 140.808594 "/>
<path style="fill:none;stroke-width:0.708661;stroke-linecap:round;stroke-linejoin:round;stroke:rgb(18.431373%,30.980392%,30.980392%);stroke-opacity:1;stroke-miterlimit:10;" d="M 350.15625 208.230469 C 350.15625 211.964844 347.132812 214.988281 343.398438 214.988281 C 339.667969 214.988281 336.644531 211.964844 336.644531 208.230469 C 336.644531 204.5 339.667969 201.476562 343.398438 201.476562 C 347.132812 201.476562 350.15625 204.5 350.15625 208.230469 "/>
<path style="fill-rule:nonzero;fill:rgb(18.431373%,30.980392%,30.980392%);fill-opacity:1;stroke-width:0.708661;stroke-linecap:round;stroke-linejoin:round;stroke:rgb(18.431373%,30.980392%,30.980392%);stroke-opacity:1;stroke-miterlimit:10;" d="M 302.144531 257.277344 C 302.144531 261.007812 299.117188 264.035156 295.386719 264.035156 C 291.65625 264.035156 288.628906 261.007812 288.628906 257.277344 C 288.628906 253.546875 291.65625 250.523438 295.386719 250.523438 C 299.117188 250.523438 302.144531 253.546875 302.144531 257.277344 "/>
<path style="fill:none;stroke-width:0.708661;stroke-linecap:round;stroke-linejoin:round;stroke:rgb(18.431373%,30.980392%,30.980392%);stroke-opacity:1;stroke-miterlimit:10;" d="M 266.746094 298.035156 C 266.746094 301.765625 263.71875 304.789062 259.988281 304.789062 C 256.257812 304.789062 253.234375 301.765625 253.234375 298.035156 C 253.234375 294.304688 256.257812 291.277344 259.988281 291.277344 C 263.71875 291.277344 266.746094 294.304688 266.746094 298.035156 "/>
<path style="fill:none;stroke-width:0.708661;stroke-linecap:round;stroke-linejoin:round;stroke:rgb(18.431373%,30.980392%,30.980392%);stroke-opacity:1;stroke-miterlimit:10;" d="M 255.210938 258.195312 C 255.210938 261.925781 252.1875 264.949219 248.457031 264.949219 C 244.722656 264.949219 241.699219 261.925781 241.699219 258.195312 C 241.699219 254.464844 244.722656 251.4375 248.457031 251.4375 C 252.1875 251.4375 255.210938 254.464844 255.210938 258.195312 "/>
<path style="fill:none;stroke-width:0.708661;stroke-linecap:round;stroke-linejoin:round;stroke:rgb(18.431373%,30.980392%,30.980392%);stroke-opacity:1;stroke-miterlimit:10;" d="M 358.65625 298.613281 C 358.65625 302.34375 355.632812 305.371094 351.902344 305.371094 C 348.171875 305.371094 345.144531 302.34375 345.144531 298.613281 C 345.144531 294.882812 348.171875 291.859375 351.902344 291.859375 C 355.632812 291.859375 358.65625 294.882812 358.65625 298.613281 "/>
<path style="fill:none;stroke-width:0.708661;stroke-linecap:round;stroke-linejoin:round;stroke:rgb(18.431373%,30.980392%,30.980392%);stroke-opacity:1;stroke-miterlimit:10;" d="M 390.34375 102.289062 C 390.34375 106.019531 387.316406 109.042969 383.585938 109.042969 C 379.855469 109.042969 376.828125 106.019531 376.828125 102.289062 C 376.828125 98.554688 379.855469 95.53125 383.585938 95.53125 C 387.316406 95.53125 390.34375 98.554688 390.34375 102.289062 "/>
<path style="fill:none;stroke-width:0.708661;stroke-linecap:round;stroke-linejoin:round;stroke:rgb(18.431373%,30.980392%,30.980392%);stroke-opacity:1;stroke-miterlimit:10;" d="M 487.847656 179.902344 C 487.847656 183.636719 484.820312 186.660156 481.089844 186.660156 C 477.359375 186.660156 474.335938 183.636719 474.335938 179.902344 C 474.335938 176.171875 477.359375 173.148438 481.089844 173.148438 C 484.820312 173.148438 487.847656 176.171875 487.847656 179.902344 "/>
<path style="fill:none;stroke-width:0.708661;stroke-linecap:round;stroke-linejoin:round;stroke:rgb(18.431373%,30.980392%,30.980392%);stroke-opacity:1;stroke-miterlimit:10;" d="M 272.203125 43.777344 C 272.203125 47.511719 269.175781 50.535156 265.445312 50.535156 C 261.714844 50.535156 258.6875 47.511719 258.6875 43.777344 C 258.6875 40.046875 261.714844 37.023438 265.445312 37.023438 C 269.175781 37.023438 272.203125 40.046875 272.203125 43.777344 "/>
<path style="fill:none;stroke-width:0.708661;stroke-linecap:round;stroke-linejoin:round;stroke:rgb(18.431373%,30.980392%,30.980392%);stroke-opacity:1;stroke-miterlimit:10;" d="M 461.601562 106.539062 C 461.601562 110.269531 458.578125 113.292969 454.847656 113.292969 C 451.113281 113.292969 448.089844 110.269531 448.089844 106.539062 C 448.089844 102.808594 451.113281 99.78125 454.847656 99.78125 C 458.578125 99.78125 461.601562 102.808594 461.601562 106.539062 "/>
<path style="fill-rule:nonzero;fill:rgb(18.431373%,30.980392%,30.980392%);fill-opacity:1;stroke-width:0.708661;stroke-linecap:round;stroke-linejoin:round;stroke:rgb(18.431373%,30.980392%,30.980392%);stroke-opacity:1;stroke-miterlimit:10;" d="M 303.046875 274.800781 C 303.046875 278.53125 300.019531 281.554688 296.289062 281.554688 C 292.558594 281.554688 289.53125 278.53125 289.53125 274.800781 C 289.53125 271.070312 292.558594 268.042969 296.289062 268.042969 C 300.019531 268.042969 303.046875 271.070312 303.046875 274.800781 "/>
<path style="fill:none;stroke-width:0.708661;stroke-linecap:round;stroke-linejoin:round;stroke:rgb(18.431373%,30.980392%,30.980392%);stroke-opacity:1;stroke-miterlimit:10;" d="M 288.078125 164.207031 C 288.078125 167.9375 285.054688 170.964844 281.320312 170.964844 C 277.589844 170.964844 274.566406 167.9375 274.566406 164.207031 C 274.566406 160.476562 277.589844 157.449219 281.320312 157.449219 C 285.054688 157.449219 288.078125 160.476562 288.078125 164.207031 "/>
<path style="fill-rule:nonzero;fill:rgb(18.431373%,30.980392%,30.980392%);fill-opacity:1;stroke-width:0.708661;stroke-linecap:round;stroke-linejoin:round;stroke:rgb(18.431373%,30.980392%,30.980392%);stroke-opacity:1;stroke-miterlimit:10;" d="M 316.480469 190.945312 C 316.480469 194.679688 313.457031 197.703125 309.722656 197.703125 C 305.992188 197.703125 302.96875 194.679688 302.96875 190.945312 C 302.96875 187.214844 305.992188 184.191406 309.722656 184.191406 C 313.457031 184.191406 316.480469 187.214844 316.480469 190.945312 "/>
<path style="fill:none;stroke-width:0.708661;stroke-linecap:round;stroke-linejoin:round;stroke:rgb(18.431373%,30.980392%,30.980392%);stroke-opacity:1;stroke-miterlimit:10;" d="M 260.644531 174.894531 C 260.644531 178.625 257.621094 181.648438 253.886719 181.648438 C 250.15625 181.648438 247.132812 178.625 247.132812 174.894531 C 247.132812 171.164062 250.15625 168.136719 253.886719 168.136719 C 257.621094 168.136719 260.644531 171.164062 260.644531 174.894531 "/>
<path style="fill:none;stroke-width:0.708661;stroke-linecap:round;stroke-linejoin:round;stroke:rgb(18.431373%,30.980392%,30.980392%);stroke-opacity:1;stroke-miterlimit:10;" d="M 339.375 130.207031 C 339.375 133.9375 336.351562 136.960938 332.617188 136.960938 C 328.886719 136.960938 325.863281 133.9375 325.863281 130.207031 C 325.863281 126.476562 328.886719 123.449219 332.617188 123.449219 C 336.351562 123.449219 339.375 126.476562 339.375 130.207031 "/>
<path style="fill:none;stroke-width:0.708661;stroke-linecap:round;stroke-linejoin:round;stroke:rgb(18.431373%,30.980392%,30.980392%);stroke-opacity:1;stroke-miterlimit:10;" d="M 169.371094 350.972656 C 169.371094 354.703125 166.347656 357.730469 162.617188 357.730469 C 158.882812 357.730469 155.859375 354.703125 155.859375 350.972656 C 155.859375 347.242188 158.882812 344.214844 162.617188 344.214844 C 166.347656 344.214844 169.371094 347.242188 169.371094 350.972656 "/>
<path style="fill-rule:nonzero;fill:rgb(18.431373%,30.980392%,30.980392%);fill-opacity:1;stroke-width:0.708661;stroke-linecap:round;stroke-linejoin:round;stroke:rgb(18.431373%,30.980392%,30.980392%);stroke-opacity:1;stroke-miterlimit:10;" d="M 316.113281 195.746094 C 316.113281 199.476562 313.089844 202.503906 309.359375 202.503906 C 305.628906 202.503906 302.601562 199.476562 302.601562 195.746094 C 302.601562 192.015625 305.628906 188.988281 309.359375 188.988281 C 313.089844 188.988281 316.113281 192.015625 316.113281 195.746094 "/>
<path style="fill:none;stroke-width:0.708661;stroke-linecap:round;stroke-linejoin:round;stroke:rgb(18.431373%,30.980392%,30.980392%);stroke-opacity:1;stroke-miterlimit:10;" d="M 222.332031 236.519531 C 222.332031 240.25 219.308594 243.273438 215.578125 243.273438 C 211.84375 243.273438 208.820312 240.25 208.820312 236.519531 C 208.820312 232.785156 211.84375 229.761719 215.578125 229.761719 C 219.308594 229.761719 222.332031 232.785156 222.332031 236.519531 "/>
<path style="fill:none;stroke-width:0.708661;stroke-linecap:round;stroke-linejoin:round;stroke:rgb(18.431373%,30.980392%,30.980392%);stroke-opacity:1;stroke-miterlimit:10;" d="M 308.972656 274.699219 C 308.972656 278.433594 305.945312 281.457031 302.214844 281.457031 C 298.484375 281.457031 295.460938 278.433594 295.460938 274.699219 C 295.460938 270.96875 298.484375 267.945312 302.214844 267.945312 C 305.945312 267.945312 308.972656 270.96875 308.972656 274.699219 "/>
<path style="fill:none;stroke-width:0.708661;stroke-linecap:round;stroke-linejoin:round;stroke:rgb(18.431373%,30.980392%,30.980392%);stroke-opacity:1;stroke-miterlimit:10;" d="M 232.421875 221.332031 C 232.421875 225.066406 229.394531 228.089844 225.664062 228.089844 C 221.933594 228.089844 218.90625 225.066406 218.90625 221.332031 C 218.90625 217.601562 221.933594 214.578125 225.664062 214.578125 C 229.394531 214.578125 232.421875 217.601562 232.421875 221.332031 "/>
<path style="fill:none;stroke-width:0.708661;stroke-linecap:round;stroke-linejoin:round;stroke:rgb(18.431373%,30.980392%,30.980392%);stroke-opacity:1;stroke-miterlimit:10;" d="M 29.664062 481.089844 C 29.664062 484.820312 26.640625 487.847656 22.910156 487.847656 C 19.179688 487.847656 16.152344 484.820312 16.152344 481.089844 C 16.152344 477.359375 19.179688 474.335938 22.910156 474.335938 C 26.640625 474.335938 29.664062 477.359375 29.664062 481.089844 "/>
<path style="fill-rule:nonzero;fill:rgb(18.431373%,30.980392%,30.980392%);fill-opacity:1;stroke-width:0.708661;stroke-linecap:round;stroke-linejoin:round;stroke:rgb(18.431373%,30.980392%,30.980392%);stroke-opacity:1;stroke-miterlimit:10;" d="M 321.472656 258.117188 C 321.472656 261.847656 318.449219 264.871094 314.714844 264.871094 C 310.984375 264.871094 307.960938 261.847656 307.960938 258.117188 C 307.960938 254.382812 310.984375 251.359375 314.714844 251.359375 C 318.449219 251.359375 321.472656 254.382812 321.472656 258.117188 "/>
<path style="fill:none;stroke-width:0.708661;stroke-linecap:round;stroke-linejoin:round;stroke:rgb(18.431373%,30.980392%,30.980392%);stroke-opacity:1;stroke-miterlimit:10;" d="M 338.871094 403.667969 C 338.871094 407.398438 335.847656 410.425781 332.117188 410.425781 C 328.386719 410.425781 325.359375 407.398438 325.359375 403.667969 C 325.359375 399.9375 328.386719 396.914062 332.117188 396.914062 C 335.847656 396.914062 338.871094 399.9375 338.871094 403.667969 "/>
<path style="fill:none;stroke-width:0.708661;stroke-linecap:round;stroke-linejoin:round;stroke:rgb(18.431373%,30.980392%,30.980392%);stroke-opacity:1;stroke-miterlimit:10;" d="M 272.105469 287.726562 C 272.105469 291.460938 269.082031 294.484375 265.351562 294.484375 C 261.617188 294.484375 258.59375 291.460938 258.59375 287.726562 C 258.59375 283.996094 261.617188 280.972656 265.351562 280.972656 C 269.082031 280.972656 272.105469 283.996094 272.105469 287.726562 "/>
<path style="fill-rule:nonzero;fill:rgb(18.431373%,30.980392%,30.980392%);fill-opacity:1;stroke-width:0.708661;stroke-linecap:round;stroke-linejoin:round;stroke:rgb(18.431373%,30.980392%,30.980392%);stroke-opacity:1;stroke-miterlimit:10;" d="M 342.082031 175.355469 C 342.082031 179.085938 339.058594 182.113281 335.324219 182.113281 C 331.59375 182.113281 328.570312 179.085938 328.570312 175.355469 C 328.570312 171.625 331.59375 168.597656 335.324219 168.597656 C 339.058594 168.597656 342.082031 171.625 342.082031 175.355469 "/>
<path style="fill:none;stroke-width:0.708661;stroke-linecap:round;stroke-linejoin:round;stroke:rgb(18.431373%,30.980392%,30.980392%);stroke-opacity:1;stroke-miterlimit:10;" d="M 303.566406 168.0625 C 303.566406 171.796875 300.542969 174.820312 296.8125 174.820312 C 293.082031 174.820312 290.054688 171.796875 290.054688 168.0625 C 290.054688 164.332031 293.082031 161.308594 296.8125 161.308594 C 300.542969 161.308594 303.566406 164.332031 303.566406 168.0625 "/>
<path style="fill:none;stroke-width:0.708661;stroke-linecap:round;stroke-linejoin:round;stroke:rgb(18.431373%,30.980392%,30.980392%);stroke-opacity:1;stroke-miterlimit:10;" d="M 253.394531 350.203125 C 253.394531 353.933594 250.371094 356.960938 246.640625 356.960938 C 242.90625 356.960938 239.882812 353.933594 239.882812 350.203125 C 239.882812 346.472656 242.90625 343.449219 246.640625 343.449219 C 250.371094 343.449219 253.394531 346.472656 253.394531 350.203125 "/>
<path style="fill:none;stroke-width:0.708661;stroke-linecap:round;stroke-linejoin:round;stroke:rgb(18.431373%,30.980392%,30.980392%);stroke-opacity:1;stroke-miterlimit:10;" d="M 335.238281 250.953125 C 335.238281 254.683594 332.210938 257.707031 328.480469 257.707031 C 324.75 257.707031 321.726562 254.683594 321.726562 250.953125 C 321.726562 247.222656 324.75 244.195312 328.480469 244.195312 C 332.210938 244.195312 335.238281 247.222656 335.238281 250.953125 "/>
<path style="fill:none;stroke-width:0.708661;stroke-linecap:round;stroke-linejoin:round;stroke:rgb(18.431373%,30.980392%,30.980392%);stroke-opacity:1;stroke-miterlimit:10;" d="M 260.785156 316.136719 C 260.785156 319.867188 257.761719 322.890625 254.03125 322.890625 C 250.300781 322.890625 247.273438 319.867188 247.273438 316.136719 C 247.273438 312.402344 250.300781 309.378906 254.03125 309.378906 C 257.761719 309.378906 260.785156 312.402344 260.785156 316.136719 "/>
<path style="fill:none;stroke-width:0.708661;stroke-linecap:round;stroke-linejoin:round;stroke:rgb(18.431373%,30.980392%,30.980392%);stroke-opacity:1;stroke-miterlimit:10;" d="M 210.855469 282.609375 C 210.855469 286.339844 207.832031 289.363281 204.101562 289.363281 C 200.367188 289.363281 197.34375 286.339844 197.34375 282.609375 C 197.34375 278.875 200.367188 275.851562 204.101562 275.851562 C 207.832031 275.851562 210.855469 278.875 210.855469 282.609375 "/>
<path style="fill:none;stroke-width:0.708661;stroke-linecap:round;stroke-linejoin:round;stroke:rgb(18.431373%,30.980392%,30.980392%);stroke-opacity:1;stroke-miterlimit:10;" d="M 357.273438 119.894531 C 357.273438 123.625 354.246094 126.648438 350.515625 126.648438 C 346.785156 126.648438 343.761719 123.625 343.761719 119.894531 C 343.761719 116.160156 346.785156 113.136719 350.515625 113.136719 C 354.246094 113.136719 357.273438 116.160156 357.273438 119.894531 "/>
<path style="fill-rule:nonzero;fill:rgb(18.431373%,30.980392%,30.980392%);fill-opacity:1;stroke-width:0.708661;stroke-linecap:round;stroke-linejoin:round;stroke:rgb(18.431373%,30.980392%,30.980392%);stroke-opacity:1;stroke-miterlimit:10;" d="M 341.714844 257.320312 C 341.714844 261.050781 338.691406 264.078125 334.960938 264.078125 C 331.230469 264.078125 328.203125 261.050781 328.203125 257.320312 C 328.203125 253.589844 331.230469 250.5625 334.960938 250.5625 C 338.691406 250.5625 341.714844 253.589844 341.714844 257.320312 "/>
<path style="fill-rule:nonzero;fill:rgb(18.431373%,30.980392%,30.980392%);fill-opacity:1;stroke-width:0.708661;stroke-linecap:round;stroke-linejoin:round;stroke:rgb(18.431373%,30.980392%,30.980392%);stroke-opacity:1;stroke-miterlimit:10;" d="M 357.480469 119.375 C 357.480469 123.105469 354.457031 126.128906 350.722656 126.128906 C 346.992188 126.128906 343.96875 123.105469 343.96875 119.375 C 343.96875 115.644531 346.992188 112.617188 350.722656 112.617188 C 354.457031 112.617188 357.480469 115.644531 357.480469 119.375 "/>
<path style="fill-rule:nonzero;fill:rgb(18.431373%,30.980392%,30.980392%);fill-opacity:1;stroke-width:0.708661;stroke-linecap:round;stroke-linejoin:round;stroke:rgb(18.431373%,30.980392%,30.980392%);stroke-opacity:1;stroke-miterlimit:10;" d="M 331.351562 308.171875 C 331.351562 311.902344 328.328125 314.929688 324.597656 314.929688 C 320.867188 314.929688 317.839844 311.902344 317.839844 308.171875 C 317.839844 304.441406 320.867188 301.417969 324.597656 301.417969 C 328.328125 301.417969 331.351562 304.441406 331.351562 308.171875 "/>
<path style="fill:none;stroke-width:0.708661;stroke-linecap:round;stroke-linejoin:round;stroke:rgb(18.431373%,30.980392%,30.980392%);stroke-opacity:1;stroke-miterlimit:10;" d="M 331.875 243.367188 C 331.875 247.097656 328.847656 250.121094 325.117188 250.121094 C 321.386719 250.121094 318.363281 247.097656 318.363281 243.367188 C 318.363281 239.632812 321.386719 236.609375 325.117188 236.609375 C 328.847656 236.609375 331.875 239.632812 331.875 243.367188 "/>
<path style="fill:none;stroke-width:0.708661;stroke-linecap:round;stroke-linejoin:round;stroke:rgb(18.431373%,30.980392%,30.980392%);stroke-opacity:1;stroke-miterlimit:10;" d="M 206.109375 265.339844 C 206.109375 269.070312 203.085938 272.09375 199.355469 272.09375 C 195.625 272.09375 192.597656 269.070312 192.597656 265.339844 C 192.597656 261.609375 195.625 258.582031 199.355469 258.582031 C 203.085938 258.582031 206.109375 261.609375 206.109375 265.339844 "/>
<path style="fill-rule:nonzero;fill:rgb(18.431373%,30.980392%,30.980392%);fill-opacity:1;stroke-width:0.708661;stroke-linecap:round;stroke-linejoin:round;stroke:rgb(18.431373%,30.980392%,30.980392%);stroke-opacity:1;stroke-miterlimit:10;" d="M 296.96875 185.828125 C 296.96875 189.558594 293.941406 192.582031 290.210938 192.582031 C 286.480469 192.582031 283.457031 189.558594 283.457031 185.828125 C 283.457031 182.097656 286.480469 179.070312 290.210938 179.070312 C 293.941406 179.070312 296.96875 182.097656 296.96875 185.828125 "/>
<path style="fill:none;stroke-width:0.708661;stroke-linecap:round;stroke-linejoin:round;stroke:rgb(18.431373%,30.980392%,30.980392%);stroke-opacity:1;stroke-miterlimit:10;" d="M 325.234375 262.648438 C 325.234375 266.378906 322.207031 269.40625 318.476562 269.40625 C 314.746094 269.40625 311.722656 266.378906 311.722656 262.648438 C 311.722656 258.917969 314.746094 255.894531 318.476562 255.894531 C 322.207031 255.894531 325.234375 258.917969 325.234375 262.648438 "/>
<path style="fill:none;stroke-width:0.708661;stroke-linecap:round;stroke-linejoin:round;stroke:rgb(18.431373%,30.980392%,30.980392%);stroke-opacity:1;stroke-miterlimit:10;" d="M 243.433594 250.433594 C 243.433594 254.164062 240.410156 257.1875 236.675781 257.1875 C 232.945312 257.1875 229.921875 254.164062 229.921875 250.433594 C 229.921875 246.699219 232.945312 243.675781 236.675781 243.675781 C 240.410156 243.675781 243.433594 246.699219 243.433594 250.433594 "/>
<path style="fill-rule:nonzero;fill:rgb(18.431373%,30.980392%,30.980392%);fill-opacity:1;stroke-width:0.708661;stroke-linecap:round;stroke-linejoin:round;stroke:rgb(18.431373%,30.980392%,30.980392%);stroke-opacity:1;stroke-miterlimit:10;" d="M 282.605469 351.328125 C 282.605469 355.058594 279.582031 358.085938 275.847656 358.085938 C 272.117188 358.085938 269.09375 355.058594 269.09375 351.328125 C 269.09375 347.597656 272.117188 344.574219 275.847656 344.574219 C 279.582031 344.574219 282.605469 347.597656 282.605469 351.328125 "/>
<path style="fill:none;stroke-width:0.708661;stroke-linecap:round;stroke-linejoin:round;stroke:rgb(18.431373%,30.980392%,30.980392%);stroke-opacity:1;stroke-miterlimit:10;" d="M 379.914062 128.171875 C 379.914062 131.902344 376.886719 134.925781 373.15625 134.925781 C 369.425781 134.925781 366.398438 131.902344 366.398438 128.171875 C 366.398438 124.4375 369.425781 121.414062 373.15625 121.414062 C 376.886719 121.414062 379.914062 124.4375 379.914062 128.171875 "/>
<path style="fill-rule:nonzero;fill:rgb(18.431373%,30.980392%,30.980392%);fill-opacity:1;stroke-width:0.708661;stroke-linecap:round;stroke-linejoin:round;stroke:rgb(18.431373%,30.980392%,30.980392%);stroke-opacity:1;stroke-miterlimit:10;" d="M 318.421875 132.332031 C 318.421875 136.066406 315.394531 139.089844 311.664062 139.089844 C 307.933594 139.089844 304.90625 136.066406 304.90625 132.332031 C 304.90625 128.601562 307.933594 125.578125 311.664062 125.578125 C 315.394531 125.578125 318.421875 128.601562 318.421875 132.332031 "/>
<path style="fill:none;stroke-width:0.708661;stroke-linecap:round;stroke-linejoin:round;stroke:rgb(18.431373%,30.980392%,30.980392%);stroke-opacity:1;stroke-miterlimit:10;" d="M 272.542969 216.039062 C 272.542969 219.773438 269.515625 222.796875 265.785156 222.796875 C 262.054688 222.796875 259.027344 219.773438 259.027344 216.039062 C 259.027344 212.308594 262.054688 209.285156 265.785156 209.285156 C 269.515625 209.285156 272.542969 212.308594 272.542969 216.039062 "/>
<path style="fill:none;stroke-width:0.708661;stroke-linecap:round;stroke-linejoin:round;stroke:rgb(18.431373%,30.980392%,30.980392%);stroke-opacity:1;stroke-miterlimit:10;" d="M 280.691406 182.113281 C 280.691406 185.84375 277.667969 188.867188 273.933594 188.867188 C 270.203125 188.867188 267.179688 185.84375 267.179688 182.113281 C 267.179688 178.378906 270.203125 175.355469 273.933594 175.355469 C 277.667969 175.355469 280.691406 178.378906 280.691406 182.113281 "/>
<path style="fill-rule:nonzero;fill:rgb(18.431373%,30.980392%,30.980392%);fill-opacity:1;stroke-width:0.708661;stroke-linecap:round;stroke-linejoin:round;stroke:rgb(18.431373%,30.980392%,30.980392%);stroke-opacity:1;stroke-miterlimit:10;" d="M 155.511719 226.472656 C 155.511719 230.207031 152.488281 233.230469 148.753906 233.230469 C 145.023438 233.230469 142 230.207031 142 226.472656 C 142 222.742188 145.023438 219.71875 148.753906 219.71875 C 152.488281 219.71875 155.511719 222.742188 155.511719 226.472656 "/>
<path style="fill:none;stroke-width:0.708661;stroke-linecap:round;stroke-linejoin:round;stroke:rgb(18.431373%,30.980392%,30.980392%);stroke-opacity:1;stroke-miterlimit:10;" d="M 291.105469 160.957031 C 291.105469 164.6875 288.082031 167.710938 284.351562 167.710938 C 280.617188 167.710938 277.59375 164.6875 277.59375 160.957031 C 277.59375 157.226562 280.617188 154.199219 284.351562 154.199219 C 288.082031 154.199219 291.105469 157.226562 291.105469 160.957031 "/>
<path style="fill:none;stroke-width:0.708661;stroke-linecap:round;stroke-linejoin:round;stroke:rgb(18.431373%,30.980392%,30.980392%);stroke-opacity:1;stroke-miterlimit:10;" d="M 291.148438 209.605469 C 291.148438 213.339844 288.125 216.363281 284.390625 216.363281 C 280.660156 216.363281 277.636719 213.339844 277.636719 209.605469 C 277.636719 205.875 280.660156 202.851562 284.390625 202.851562 C 288.125 202.851562 291.148438 205.875 291.148438 209.605469 "/>
<path style="fill:none;stroke-width:0.708661;stroke-linecap:round;stroke-linejoin:round;stroke:rgb(18.431373%,30.980392%,30.980392%);stroke-opacity:1;stroke-miterlimit:10;" d="M 188.121094 325.070312 C 188.121094 328.804688 185.097656 331.828125 181.367188 331.828125 C 177.632812 331.828125 174.609375 328.804688 174.609375 325.070312 C 174.609375 321.339844 177.632812 318.316406 181.367188 318.316406 C 185.097656 318.316406 188.121094 321.339844 188.121094 325.070312 "/>
<path style="fill-rule:nonzero;fill:rgb(18.431373%,30.980392%,30.980392%);fill-opacity:1;stroke-width:0.708661;stroke-linecap:round;stroke-linejoin:round;stroke:rgb(18.431373%,30.980392%,30.980392%);stroke-opacity:1;stroke-miterlimit:10;" d="M 151.410156 268.683594 C 151.410156 272.414062 148.386719 275.441406 144.652344 275.441406 C 140.921875 275.441406 137.898438 272.414062 137.898438 268.683594 C 137.898438 264.953125 140.921875 261.925781 144.652344 261.925781 C 148.386719 261.925781 151.410156 264.953125 151.410156 268.683594 "/>
<path style="fill:none;stroke-width:0.708661;stroke-linecap:round;stroke-linejoin:round;stroke:rgb(18.431373%,30.980392%,30.980392%);stroke-opacity:1;stroke-miterlimit:10;" d="M 263.316406 269.207031 C 263.316406 272.941406 260.292969 275.964844 256.558594 275.964844 C 252.828125 275.964844 249.804688 272.941406 249.804688 269.207031 C 249.804688 265.476562 252.828125 262.453125 256.558594 262.453125 C 260.292969 262.453125 263.316406 265.476562 263.316406 269.207031 "/>
<path style="fill:none;stroke-width:0.708661;stroke-linecap:round;stroke-linejoin:round;stroke:rgb(18.431373%,30.980392%,30.980392%);stroke-opacity:1;stroke-miterlimit:10;" d="M 210.859375 184.871094 C 210.859375 188.605469 207.835938 191.628906 204.101562 191.628906 C 200.371094 191.628906 197.347656 188.605469 197.347656 184.871094 C 197.347656 181.140625 200.371094 178.117188 204.101562 178.117188 C 207.835938 178.117188 210.859375 181.140625 210.859375 184.871094 "/>
<path style="fill:none;stroke-width:0.708661;stroke-linecap:round;stroke-linejoin:round;stroke:rgb(18.431373%,30.980392%,30.980392%);stroke-opacity:1;stroke-miterlimit:10;" d="M 203.75 466.257812 C 203.75 469.988281 200.726562 473.011719 196.992188 473.011719 C 193.261719 473.011719 190.238281 469.988281 190.238281 466.257812 C 190.238281 462.523438 193.261719 459.5 196.992188 459.5 C 200.726562 459.5 203.75 462.523438 203.75 466.257812 "/>
<path style="fill:none;stroke-width:0.708661;stroke-linecap:round;stroke-linejoin:round;stroke:rgb(18.431373%,30.980392%,30.980392%);stroke-opacity:1;stroke-miterlimit:10;" d="M 307.667969 210.601562 C 307.667969 214.332031 304.644531 217.355469 300.914062 217.355469 C 297.179688 217.355469 294.15625 214.332031 294.15625 210.601562 C 294.15625 206.871094 297.179688 203.84375 300.914062 203.84375 C 304.644531 203.84375 307.667969 206.871094 307.667969 210.601562 "/>
<path style="fill:none;stroke-width:0.708661;stroke-linecap:round;stroke-linejoin:round;stroke:rgb(18.431373%,30.980392%,30.980392%);stroke-opacity:1;stroke-miterlimit:10;" d="M 274.277344 301.707031 C 274.277344 305.4375 271.253906 308.460938 267.519531 308.460938 C 263.789062 308.460938 260.765625 305.4375 260.765625 301.707031 C 260.765625 297.976562 263.789062 294.949219 267.519531 294.949219 C 271.253906 294.949219 274.277344 297.976562 274.277344 301.707031 "/>
<path style="fill-rule:nonzero;fill:rgb(18.431373%,30.980392%,30.980392%);fill-opacity:1;stroke-width:0.708661;stroke-linecap:round;stroke-linejoin:round;stroke:rgb(18.431373%,30.980392%,30.980392%);stroke-opacity:1;stroke-miterlimit:10;" d="M 346.636719 194.078125 C 346.636719 197.808594 343.613281 200.835938 339.882812 200.835938 C 336.152344 200.835938 333.125 197.808594 333.125 194.078125 C 333.125 190.347656 336.152344 187.320312 339.882812 187.320312 C 343.613281 187.320312 346.636719 190.347656 346.636719 194.078125 "/>
<path style="fill-rule:nonzero;fill:rgb(18.431373%,30.980392%,30.980392%);fill-opacity:1;stroke-width:0.708661;stroke-linecap:round;stroke-linejoin:round;stroke:rgb(18.431373%,30.980392%,30.980392%);stroke-opacity:1;stroke-miterlimit:10;" d="M 257.800781 342.0625 C 257.800781 345.792969 254.777344 348.820312 251.046875 348.820312 C 247.3125 348.820312 244.289062 345.792969 244.289062 342.0625 C 244.289062 338.332031 247.3125 335.304688 251.046875 335.304688 C 254.777344 335.304688 257.800781 338.332031 257.800781 342.0625 "/>
<path style="fill:none;stroke-width:0.708661;stroke-linecap:round;stroke-linejoin:round;stroke:rgb(18.431373%,30.980392%,30.980392%);stroke-opacity:1;stroke-miterlimit:10;" d="M 337 194.332031 C 337 198.0625 333.972656 201.085938 330.242188 201.085938 C 326.511719 201.085938 323.484375 198.0625 323.484375 194.332031 C 323.484375 190.597656 326.511719 187.574219 330.242188 187.574219 C 333.972656 187.574219 337 190.597656 337 194.332031 "/>
<path style="fill:none;stroke-width:0.708661;stroke-linecap:round;stroke-linejoin:round;stroke:rgb(18.431373%,30.980392%,30.980392%);stroke-opacity:1;stroke-miterlimit:10;" d="M 238.144531 271.128906 C 238.144531 274.863281 235.117188 277.886719 231.386719 277.886719 C 227.65625 277.886719 224.628906 274.863281 224.628906 271.128906 C 224.628906 267.398438 227.65625 264.375 231.386719 264.375 C 235.117188 264.375 238.144531 267.398438 238.144531 271.128906 "/>
<path style="fill:none;stroke-width:0.708661;stroke-linecap:round;stroke-linejoin:round;stroke:rgb(18.431373%,30.980392%,30.980392%);stroke-opacity:1;stroke-miterlimit:10;" d="M 377.203125 230.320312 C 377.203125 234.050781 374.179688 237.074219 370.449219 237.074219 C 366.714844 237.074219 363.691406 234.050781 363.691406 230.320312 C 363.691406 226.585938 366.714844 223.5625 370.449219 223.5625 C 374.179688 223.5625 377.203125 226.585938 377.203125 230.320312 "/>
<path style="fill:none;stroke-width:0.708661;stroke-linecap:round;stroke-linejoin:round;stroke:rgb(18.431373%,30.980392%,30.980392%);stroke-opacity:1;stroke-miterlimit:10;" d="M 281.550781 204.359375 C 281.550781 208.089844 278.527344 211.117188 274.792969 211.117188 C 271.0625 211.117188 268.039062 208.089844 268.039062 204.359375 C 268.039062 200.628906 271.0625 197.605469 274.792969 197.605469 C 278.527344 197.605469 281.550781 200.628906 281.550781 204.359375 "/>
<path style="fill-rule:nonzero;fill:rgb(18.431373%,30.980392%,30.980392%);fill-opacity:1;stroke-width:0.708661;stroke-linecap:round;stroke-linejoin:round;stroke:rgb(18.431373%,30.980392%,30.980392%);stroke-opacity:1;stroke-miterlimit:10;" d="M 141.484375 247.894531 C 141.484375 251.625 138.460938 254.652344 134.726562 254.652344 C 130.996094 254.652344 127.972656 251.625 127.972656 247.894531 C 127.972656 244.164062 130.996094 241.136719 134.726562 241.136719 C 138.460938 241.136719 141.484375 244.164062 141.484375 247.894531 "/>
<path style="fill:none;stroke-width:0.708661;stroke-linecap:round;stroke-linejoin:round;stroke:rgb(18.431373%,30.980392%,30.980392%);stroke-opacity:1;stroke-miterlimit:10;" d="M 264.511719 294.394531 C 264.511719 298.125 261.484375 301.152344 257.753906 301.152344 C 254.023438 301.152344 251 298.125 251 294.394531 C 251 290.664062 254.023438 287.636719 257.753906 287.636719 C 261.484375 287.636719 264.511719 290.664062 264.511719 294.394531 "/>
<path style="fill:none;stroke-width:0.708661;stroke-linecap:round;stroke-linejoin:round;stroke:rgb(18.431373%,30.980392%,30.980392%);stroke-opacity:1;stroke-miterlimit:10;" d="M 293.507812 141.375 C 293.507812 145.105469 290.480469 148.132812 286.75 148.132812 C 283.019531 148.132812 279.992188 145.105469 279.992188 141.375 C 279.992188 137.644531 283.019531 134.617188 286.75 134.617188 C 290.480469 134.617188 293.507812 137.644531 293.507812 141.375 "/>
<path style="fill-rule:nonzero;fill:rgb(18.431373%,30.980392%,30.980392%);fill-opacity:1;stroke-width:0.708661;stroke-linecap:round;stroke-linejoin:round;stroke:rgb(18.431373%,30.980392%,30.980392%);stroke-opacity:1;stroke-miterlimit:10;" d="M 163.53125 308.421875 C 163.53125 312.15625 160.507812 315.179688 156.773438 315.179688 C 153.042969 315.179688 150.019531 312.15625 150.019531 308.421875 C 150.019531 304.691406 153.042969 301.667969 156.773438 301.667969 C 160.507812 301.667969 163.53125 304.691406 163.53125 308.421875 "/>
<path style="fill:none;stroke-width:0.708661;stroke-linecap:round;stroke-linejoin:round;stroke:rgb(18.431373%,30.980392%,30.980392%);stroke-opacity:1;stroke-miterlimit:10;" d="M 266.246094 240.621094 C 266.246094 244.351562 263.21875 247.378906 259.488281 247.378906 C 255.757812 247.378906 252.734375 244.351562 252.734375 240.621094 C 252.734375 236.890625 255.757812 233.863281 259.488281 233.863281 C 263.21875 233.863281 266.246094 236.890625 266.246094 240.621094 "/>
<path style="fill-rule:nonzero;fill:rgb(18.431373%,30.980392%,30.980392%);fill-opacity:1;stroke-width:0.708661;stroke-linecap:round;stroke-linejoin:round;stroke:rgb(18.431373%,30.980392%,30.980392%);stroke-opacity:1;stroke-miterlimit:10;" d="M 350.652344 194.863281 C 350.652344 198.59375 347.625 201.617188 343.894531 201.617188 C 340.164062 201.617188 337.136719 198.59375 337.136719 194.863281 C 337.136719 191.128906 340.164062 188.105469 343.894531 188.105469 C 347.625 188.105469 350.652344 191.128906 350.652344 194.863281 "/>
<path style="fill:none;stroke-width:0.708661;stroke-linecap:round;stroke-linejoin:round;stroke:rgb(18.431373%,30.980392%,30.980392%);stroke-opacity:1;stroke-miterlimit:10;" d="M 236.039062 173.828125 C 236.039062 177.5625 233.015625 180.585938 229.28125 180.585938 C 225.550781 180.585938 222.527344 177.5625 222.527344 173.828125 C 222.527344 170.097656 225.550781 167.074219 229.28125 167.074219 C 233.015625 167.074219 236.039062 170.097656 236.039062 173.828125 "/>
<path style="fill-rule:nonzero;fill:rgb(18.431373%,30.980392%,30.980392%);fill-opacity:1;stroke-width:0.708661;stroke-linecap:round;stroke-linejoin:round;stroke:rgb(18.431373%,30.980392%,30.980392%);stroke-opacity:1;stroke-miterlimit:10;" d="M 264.011719 147.21875 C 264.011719 150.949219 260.988281 153.976562 257.257812 153.976562 C 253.523438 153.976562 250.5 150.949219 250.5 147.21875 C 250.5 143.488281 253.523438 140.460938 257.257812 140.460938 C 260.988281 140.460938 264.011719 143.488281 264.011719 147.21875 "/>
<path style="fill:none;stroke-width:0.708661;stroke-linecap:round;stroke-linejoin:round;stroke:rgb(18.431373%,30.980392%,30.980392%);stroke-opacity:1;stroke-miterlimit:10;" d="M 417.160156 96.804688 C 417.160156 100.535156 414.136719 103.558594 410.402344 103.558594 C 406.671875 103.558594 403.648438 100.535156 403.648438 96.804688 C 403.648438 93.070312 406.671875 90.046875 410.402344 90.046875 C 414.136719 90.046875 417.160156 93.070312 417.160156 96.804688 "/>
<path style="fill-rule:nonzero;fill:rgb(18.431373%,30.980392%,30.980392%);fill-opacity:1;stroke-width:0.708661;stroke-linecap:round;stroke-linejoin:round;stroke:rgb(18.431373%,30.980392%,30.980392%);stroke-opacity:1;stroke-miterlimit:10;" d="M 440.230469 176.945312 C 440.230469 180.675781 437.207031 183.703125 433.472656 183.703125 C 429.742188 183.703125 426.71875 180.675781 426.71875 176.945312 C 426.71875 173.214844 429.742188 170.1875 433.472656 170.1875 C 437.207031 170.1875 440.230469 173.214844 440.230469 176.945312 "/>
<path style="fill:none;stroke-width:0.708661;stroke-linecap:round;stroke-linejoin:round;stroke:rgb(18.431373%,30.980392%,30.980392%);stroke-opacity:1;stroke-miterlimit:10;" d="M 393.148438 205.71875 C 393.148438 209.449219 390.125 212.472656 386.394531 212.472656 C 382.660156 212.472656 379.636719 209.449219 379.636719 205.71875 C 379.636719 201.988281 382.660156 198.960938 386.394531 198.960938 C 390.125 198.960938 393.148438 201.988281 393.148438 205.71875 "/>
<path style="fill:none;stroke-width:0.708661;stroke-linecap:round;stroke-linejoin:round;stroke:rgb(18.431373%,30.980392%,30.980392%);stroke-opacity:1;stroke-miterlimit:10;" d="M 254.683594 279.796875 C 254.683594 283.527344 251.65625 286.550781 247.925781 286.550781 C 244.195312 286.550781 241.171875 283.527344 241.171875 279.796875 C 241.171875 276.0625 244.195312 273.039062 247.925781 273.039062 C 251.65625 273.039062 254.683594 276.0625 254.683594 279.796875 "/>
<path style="fill:none;stroke-width:0.708661;stroke-linecap:round;stroke-linejoin:round;stroke:rgb(18.431373%,30.980392%,30.980392%);stroke-opacity:1;stroke-miterlimit:10;" d="M 306.367188 306.457031 C 306.367188 310.1875 303.34375 313.214844 299.613281 313.214844 C 295.878906 313.214844 292.855469 310.1875 292.855469 306.457031 C 292.855469 302.726562 295.878906 299.699219 299.613281 299.699219 C 303.34375 299.699219 306.367188 302.726562 306.367188 306.457031 "/>
<path style="fill:none;stroke-width:0.708661;stroke-linecap:round;stroke-linejoin:round;stroke:rgb(18.431373%,30.980392%,30.980392%);stroke-opacity:1;stroke-miterlimit:10;" d="M 317.433594 215.039062 C 317.433594 218.769531 314.410156 221.796875 310.675781 221.796875 C 306.945312 221.796875 303.921875 218.769531 303.921875 215.039062 C 303.921875 211.308594 306.945312 208.285156 310.675781 208.285156 C 314.410156 208.285156 317.433594 211.308594 317.433594 215.039062 "/>
<path style="fill:none;stroke-width:0.708661;stroke-linecap:round;stroke-linejoin:round;stroke:rgb(18.431373%,30.980392%,30.980392%);stroke-opacity:1;stroke-miterlimit:10;" d="M 412.699219 95.828125 C 412.699219 99.558594 409.671875 102.585938 405.941406 102.585938 C 402.210938 102.585938 399.1875 99.558594 399.1875 95.828125 C 399.1875 92.097656 402.210938 89.074219 405.941406 89.074219 C 409.671875 89.074219 412.699219 92.097656 412.699219 95.828125 "/>
<path style="fill:none;stroke-width:4.267913;stroke-linecap:butt;stroke-linejoin:round;stroke:rgb(0%,0%,0%);stroke-opacity:0.298039;stroke-dasharray:17.071654,17.071654;stroke-miterlimit:10;" d="M 0 433.519531 L 504 57.195312 "/>
<path style="fill:none;stroke-width:4.267913;stroke-linecap:butt;stroke-linejoin:round;stroke:rgb(0%,0%,0%);stroke-opacity:1;stroke-dasharray:17.071654,17.071654;stroke-miterlimit:10;" d="M 0 336.28125 L 504 132.734375 "/>
</g>
</svg>
