<?xml version="1.0" encoding="UTF-8"?>
<svg xmlns="http://www.w3.org/2000/svg" xmlns:xlink="http://www.w3.org/1999/xlink" width="504pt" height="504pt" viewBox="0 0 504 504" version="1.1">
<g id="surface24">
<rect x="0" y="0" width="504" height="504" style="fill:rgb(100%,100%,100%);fill-opacity:1;stroke:none;"/>
<path style="fill-rule:nonzero;fill:rgb(18.431373%,30.980392%,30.980392%);fill-opacity:1;stroke-width:0.708661;stroke-linecap:round;stroke-linejoin:round;stroke:rgb(18.431373%,30.980392%,30.980392%);stroke-opacity:1;stroke-miterlimit:10;" d="M 33.933594 481.089844 C 33.933594 487.179688 28.996094 492.113281 22.910156 492.113281 C 16.820312 492.113281 11.886719 487.179688 11.886719 481.089844 C 11.886719 475.003906 16.820312 470.066406 22.910156 470.066406 C 28.996094 470.066406 33.933594 475.003906 33.933594 481.089844 "/>
<path style="fill:none;stroke-width:0.708661;stroke-linecap:round;stroke-linejoin:round;stroke:rgb(18.431373%,30.980392%,30.980392%);stroke-opacity:1;stroke-miterlimit:10;" d="M 84.84375 481.089844 C 84.84375 487.179688 79.90625 492.113281 73.816406 492.113281 C 67.730469 492.113281 62.792969 487.179688 62.792969 481.089844 C 62.792969 475.003906 67.730469 470.066406 73.816406 470.066406 C 79.90625 470.066406 84.84375 475.003906 84.84375 481.089844 "/>
<path style="fill:none;stroke-width:0.708661;stroke-linecap:round;stroke-linejoin:round;stroke:rgb(18.431373%,30.980392%,30.980392%);stroke-opacity:1;stroke-miterlimit:10;" d="M 135.75 481.089844 C 135.75 487.179688 130.816406 492.113281 124.726562 492.113281 C 118.640625 492.113281 113.703125 487.179688 113.703125 481.089844 C 113.703125 475.003906 118.640625 470.066406 124.726562 470.066406 C 130.816406 470.066406 135.75 475.003906 135.75 481.089844 "/>
<path style="fill-rule:nonzero;fill:rgb(18.431373%,30.980392%,30.980392%);fill-opacity:1;stroke-width:0.708661;stroke-linecap:round;stroke-linejoin:round;stroke:rgb(18.431373%,30.980392%,30.980392%);stroke-opacity:1;stroke-miterlimit:10;" d="M 186.660156 481.089844 C 186.660156 487.179688 181.726562 492.113281 175.636719 492.113281 C 169.546875 492.113281 164.613281 487.179688 164.613281 481.089844 C 164.613281 475.003906 169.546875 470.066406 175.636719 470.066406 C 181.726562 470.066406 186.660156 475.003906 186.660156 481.089844 "/>
<path style="fill-rule:nonzero;fill:rgb(18.431373%,30.980392%,30.980392%);fill-opacity:1;stroke-width:0.708661;stroke-linecap:round;stroke-linejoin:round;stroke:rgb(18.431373%,30.980392%,30.980392%);stroke-opacity:1;stroke-miterlimit:10;" d="M 237.570312 481.089844 C 237.570312 487.179688 232.632812 492.113281 226.546875 492.113281 C 220.457031 492.113281 215.519531 487.179688 215.519531 481.089844 C 215.519531 475.003906 220.457031 470.066406 226.546875 470.066406 C 232.632812 470.066406 237.570312 475.003906 237.570312 481.089844 "/>
<path style="fill:none;stroke-width:0.708661;stroke-linecap:round;stroke-linejoin:round;stroke:rgb(18.431373%,30.980392%,30.980392%);stroke-opacity:1;stroke-miterlimit:10;" d="M 288.480469 481.089844 C 288.480469 487.179688 283.542969 492.113281 277.453125 492.113281 C 271.367188 492.113281 266.429688 487.179688 266.429688 481.089844 C 266.429688 475.003906 271.367188 470.066406 277.453125 470.066406 C 283.542969 470.066406 288.480469 475.003906 288.480469 481.089844 "/>
<path style="fill:none;stroke-width:0.708661;stroke-linecap:round;stroke-linejoin:round;stroke:rgb(18.431373%,30.980392%,30.980392%);stroke-opacity:1;stroke-miterlimit:10;" d="M 339.386719 481.089844 C 339.386719 487.179688 334.453125 492.113281 328.363281 492.113281 C 322.273438 492.113281 317.339844 487.179688 317.339844 481.089844 C 317.339844 475.003906 322.273438 470.066406 328.363281 470.066406 C 334.453125 470.066406 339.386719 475.003906 339.386719 481.089844 "/>
<path style="fill:none;stroke-width:0.708661;stroke-linecap:round;stroke-linejoin:round;stroke:rgb(18.431373%,30.980392%,30.980392%);stroke-opacity:1;stroke-miterlimit:10;" d="M 390.296875 481.089844 C 390.296875 487.179688 385.359375 492.113281 379.273438 492.113281 C 373.183594 492.113281 368.25 487.179688 368.25 481.089844 C 368.25 475.003906 373.183594 470.066406 379.273438 470.066406 C 385.359375 470.066406 390.296875 475.003906 390.296875 481.089844 "/>
<path style="fill:none;stroke-width:0.708661;stroke-linecap:round;stroke-linejoin:round;stroke:rgb(18.431373%,30.980392%,30.980392%);stroke-opacity:1;stroke-miterlimit:10;" d="M 441.207031 481.089844 C 441.207031 487.179688 436.269531 492.113281 430.183594 492.113281 C 424.09375 492.113281 419.15625 487.179688 419.15625 481.089844 C 419.15625 475.003906 424.09375 470.066406 430.183594 470.066406 C 436.269531 470.066406 441.207031 475.003906 441.207031 481.089844 "/>
<path style="fill:none;stroke-width:0.708661;stroke-linecap:round;stroke-linejoin:round;stroke:rgb(18.431373%,30.980392%,30.980392%);stroke-opacity:1;stroke-miterlimit:10;" d="M 492.113281 481.089844 C 492.113281 487.179688 487.179688 492.113281 481.089844 492.113281 C 475.003906 492.113281 470.066406 487.179688 470.066406 481.089844 C 470.066406 475.003906 475.003906 470.066406 481.089844 470.066406 C 487.179688 470.066406 492.113281 475.003906 492.113281 481.089844 "/>
<path style="fill:none;stroke-width:0.708661;stroke-linecap:round;stroke-linejoin:round;stroke:rgb(18.431373%,30.980392%,30.980392%);stroke-opacity:1;stroke-miterlimit:10;" d="M 33.933594 430.183594 C 33.933594 436.269531 28.996094 441.207031 22.910156 441.207031 C 16.820312 441.207031 11.886719 436.269531 11.886719 430.183594 C 11.886719 424.09375 16.820312 419.15625 22.910156 419.15625 C 28.996094 419.15625 33.933594 424.09375 33.933594 430.183594 "/>
<path style="fill:none;stroke-width:0.708661;stroke-linecap:round;stroke-linejoin:round;stroke:rgb(18.431373%,30.980392%,30.980392%);stroke-opacity:1;stroke-miterlimit:10;" d="M 84.84375 430.183594 C 84.84375 436.269531 79.90625 441.207031 73.816406 441.207031 C 67.730469 441.207031 62.792969 436.269531 62.792969 430.183594 C 62.792969 424.09375 67.730469 419.15625 73.816406 419.15625 C 79.90625 419.15625 84.84375 424.09375 84.84375 430.183594 "/>
<path style="fill-rule:nonzero;fill:rgb(18.431373%,30.980392%,30.980392%);fill-opacity:1;stroke-width:0.708661;stroke-linecap:round;stroke-linejoin:round;stroke:rgb(18.431373%,30.980392%,30.980392%);stroke-opacity:1;stroke-miterlimit:10;" d="M 135.75 430.183594 C 135.75 436.269531 130.816406 441.207031 124.726562 441.207031 C 118.640625 441.207031 113.703125 436.269531 113.703125 430.183594 C 113.703125 424.09375 118.640625 419.15625 124.726562 419.15625 C 130.816406 419.15625 135.75 424.09375 135.75 430.183594 "/>
<path style="fill:none;stroke-width:0.708661;stroke-linecap:round;stroke-linejoin:round;stroke:rgb(18.431373%,30.980392%,30.980392%);stroke-opacity:1;stroke-miterlimit:10;" d="M 186.660156 430.183594 C 186.660156 436.269531 181.726562 441.207031 175.636719 441.207031 C 169.546875 441.207031 164.613281 436.269531 164.613281 430.183594 C 164.613281 424.09375 169.546875 419.15625 175.636719 419.15625 C 181.726562 419.15625 186.660156 424.09375 186.660156 430.183594 "/>
<path style="fill:none;stroke-width:0.708661;stroke-linecap:round;stroke-linejoin:round;stroke:rgb(18.431373%,30.980392%,30.980392%);stroke-opacity:1;stroke-miterlimit:10;" d="M 237.570312 430.183594 C 237.570312 436.269531 232.632812 441.207031 226.546875 441.207031 C 220.457031 441.207031 215.519531 436.269531 215.519531 430.183594 C 215.519531 424.09375 220.457031 419.15625 226.546875 419.15625 C 232.632812 419.15625 237.570312 424.09375 237.570312 430.183594 "/>
<path style="fill:none;stroke-width:0.708661;stroke-linecap:round;stroke-linejoin:round;stroke:rgb(18.431373%,30.980392%,30.980392%);stroke-opacity:1;stroke-miterlimit:10;" d="M 288.480469 430.183594 C 288.480469 436.269531 283.542969 441.207031 277.453125 441.207031 C 271.367188 441.207031 266.429688 436.269531 266.429688 430.183594 C 266.429688 424.09375 271.367188 419.15625 277.453125 419.15625 C 283.542969 419.15625 288.480469 424.09375 288.480469 430.183594 "/>
<path style="fill:none;stroke-width:0.708661;stroke-linecap:round;stroke-linejoin:round;stroke:rgb(18.431373%,30.980392%,30.980392%);stroke-opacity:1;stroke-miterlimit:10;" d="M 339.386719 430.183594 C 339.386719 436.269531 334.453125 441.207031 328.363281 441.207031 C 322.273438 441.207031 317.339844 436.269531 317.339844 430.183594 C 317.339844 424.09375 322.273438 419.15625 328.363281 419.15625 C 334.453125 419.15625 339.386719 424.09375 339.386719 430.183594 "/>
<path style="fill:none;stroke-width:0.708661;stroke-linecap:round;stroke-linejoin:round;stroke:rgb(18.431373%,30.980392%,30.980392%);stroke-opacity:1;stroke-miterlimit:10;" d="M 390.296875 430.183594 C 390.296875 436.269531 385.359375 441.207031 379.273438 441.207031 C 373.183594 441.207031 368.25 436.269531 368.25 430.183594 C 368.25 424.09375 373.183594 419.15625 379.273438 419.15625 C 385.359375 419.15625 390.296875 424.09375 390.296875 430.183594 "/>
<path style="fill:none;stroke-width:0.708661;stroke-linecap:round;stroke-linejoin:round;stroke:rgb(18.431373%,30.980392%,30.980392%);stroke-opacity:1;stroke-miterlimit:10;" d="M 441.207031 430.183594 C 441.207031 436.269531 436.269531 441.207031 430.183594 441.207031 C 424.09375 441.207031 419.15625 436.269531 419.15625 430.183594 C 419.15625 424.09375 424.09375 419.15625 430.183594 419.15625 C 436.269531 419.15625 441.207031 424.09375 441.207031 430.183594 "/>
<path style="fill-rule:nonzero;fill:rgb(18.431373%,30.980392%,30.980392%);fill-opacity:1;stroke-width:0.708661;stroke-linecap:round;stroke-linejoin:round;stroke:rgb(18.431373%,30.980392%,30.980392%);stroke-opacity:1;stroke-miterlimit:10;" d="M 492.113281 430.183594 C 492.113281 436.269531 487.179688 441.207031 481.089844 441.207031 C 475.003906 441.207031 470.066406 436.269531 470.066406 430.183594 C 470.066406 424.09375 475.003906 419.15625 481.089844 419.15625 C 487.179688 419.15625 492.113281 424.09375 492.113281 430.183594 "/>
<path style="fill:none;stroke-width:0.708661;stroke-linecap:round;stroke-linejoin:round;stroke:rgb(18.431373%,30.980392%,30.980392%);stroke-opacity:1;stroke-miterlimit:10;" d="M 33.933594 379.273438 C 33.933594 385.359375 28.996094 390.296875 22.910156 390.296875 C 16.820312 390.296875 11.886719 385.359375 11.886719 379.273438 C 11.886719 373.183594 16.820312 368.25 22.910156 368.25 C 28.996094 368.25 33.933594 373.183594 33.933594 379.273438 "/>
<path style="fill:none;stroke-width:0.708661;stroke-linecap:round;stroke-linejoin:round;stroke:rgb(18.431373%,30.980392%,30.980392%);stroke-opacity:1;stroke-miterlimit:10;" d="M 84.84375 379.273438 C 84.84375 385.359375 79.90625 390.296875 73.816406 390.296875 C 67.730469 390.296875 62.792969 385.359375 62.792969 379.273438 C 62.792969 373.183594 67.730469 368.25 73.816406 368.25 C 79.90625 368.25 84.84375 373.183594 84.84375 379.273438 "/>
<path style="fill-rule:nonzero;fill:rgb(18.431373%,30.980392%,30.980392%);fill-opacity:1;stroke-width:0.708661;stroke-linecap:round;stroke-linejoin:round;stroke:rgb(18.431373%,30.980392%,30.980392%);stroke-opacity:1;stroke-miterlimit:10;" d="M 135.75 379.273438 C 135.75 385.359375 130.816406 390.296875 124.726562 390.296875 C 118.640625 390.296875 113.703125 385.359375 113.703125 379.273438 C 113.703125 373.183594 118.640625 368.25 124.726562 368.25 C 130.816406 368.25 135.75 373.183594 135.75 379.273438 "/>
<path style="fill:none;stroke-width:0.708661;stroke-linecap:round;stroke-linejoin:round;stroke:rgb(18.431373%,30.980392%,30.980392%);stroke-opacity:1;stroke-miterlimit:10;" d="M 186.660156 379.273438 C 186.660156 385.359375 181.726562 390.296875 175.636719 390.296875 C 169.546875 390.296875 164.613281 385.359375 164.613281 379.273438 C 164.613281 373.183594 169.546875 368.25 175.636719 368.25 C 181.726562 368.25 186.660156 373.183594 186.660156 379.273438 "/>
<path style="fill:none;stroke-width:0.708661;stroke-linecap:round;stroke-linejoin:round;stroke:rgb(18.431373%,30.980392%,30.980392%);stroke-opacity:1;stroke-miterlimit:10;" d="M 237.570312 379.273438 C 237.570312 385.359375 232.632812 390.296875 226.546875 390.296875 C 220.457031 390.296875 215.519531 385.359375 215.519531 379.273438 C 215.519531 373.183594 220.457031 368.25 226.546875 368.25 C 232.632812 368.25 237.570312 373.183594 237.570312 379.273438 "/>
<path style="fill:none;stroke-width:0.708661;stroke-linecap:round;stroke-linejoin:round;stroke:rgb(18.431373%,30.980392%,30.980392%);stroke-opacity:1;stroke-miterlimit:10;" d="M 288.480469 379.273438 C 288.480469 385.359375 283.542969 390.296875 277.453125 390.296875 C 271.367188 390.296875 266.429688 385.359375 266.429688 379.273438 C 266.429688 373.183594 271.367188 368.25 277.453125 368.25 C 283.542969 368.25 288.480469 373.183594 288.480469 379.273438 "/>
<path style="fill:none;stroke-width:0.708661;stroke-linecap:round;stroke-linejoin:round;stroke:rgb(18.431373%,30.980392%,30.980392%);stroke-opacity:1;stroke-miterlimit:10;" d="M 339.386719 379.273438 C 339.386719 385.359375 334.453125 390.296875 328.363281 390.296875 C 322.273438 390.296875 317.339844 385.359375 317.339844 379.273438 C 317.339844 373.183594 322.273438 368.25 328.363281 368.25 C 334.453125 368.25 339.386719 373.183594 339.386719 379.273438 "/>
<path style="fill:none;stroke-width:0.708661;stroke-linecap:round;stroke-linejoin:round;stroke:rgb(18.431373%,30.980392%,30.980392%);stroke-opacity:1;stroke-miterlimit:10;" d="M 390.296875 379.273438 C 390.296875 385.359375 385.359375 390.296875 379.273438 390.296875 C 373.183594 390.296875 368.25 385.359375 368.25 379.273438 C 368.25 373.183594 373.183594 368.25 379.273438 368.25 C 385.359375 368.25 390.296875 373.183594 390.296875 379.273438 "/>
<path style="fill:none;stroke-width:0.708661;stroke-linecap:round;stroke-linejoin:round;stroke:rgb(18.431373%,30.980392%,30.980392%);stroke-opacity:1;stroke-miterlimit:10;" d="M 441.207031 379.273438 C 441.207031 385.359375 436.269531 390.296875 430.183594 390.296875 C 424.09375 390.296875 419.15625 385.359375 419.15625 379.273438 C 419.15625 373.183594 424.09375 368.25 430.183594 368.25 C 436.269531 368.25 441.207031 373.183594 441.207031 379.273438 "/>
<path style="fill:none;stroke-width:0.708661;stroke-linecap:round;stroke-linejoin:round;stroke:rgb(18.431373%,30.980392%,30.980392%);stroke-opacity:1;stroke-miterlimit:10;" d="M 492.113281 379.273438 C 492.113281 385.359375 487.179688 390.296875 481.089844 390.296875 C 475.003906 390.296875 470.066406 385.359375 470.066406 379.273438 C 470.066406 373.183594 475.003906 368.25 481.089844 368.25 C 487.179688 368.25 492.113281 373.183594 492.113281 379.273438 "/>
<path style="fill:none;stroke-width:0.708661;stroke-linecap:round;stroke-linejoin:round;stroke:rgb(18.431373%,30.980392%,30.980392%);stroke-opacity:1;stroke-miterlimit:10;" d="M 33.933594 328.363281 C 33.933594 334.453125 28.996094 339.386719 22.910156 339.386719 C 16.820312 339.386719 11.886719 334.453125 11.886719 328.363281 C 11.886719 322.273438 16.820312 317.339844 22.910156 317.339844 C 28.996094 317.339844 33.933594 322.273438 33.933594 328.363281 "/>
<path style="fill:none;stroke-width:0.708661;stroke-linecap:round;stroke-linejoin:round;stroke:rgb(18.431373%,30.980392%,30.980392%);stroke-opacity:1;stroke-miterlimit:10;" d="M 84.84375 328.363281 C 84.84375 334.453125 79.90625 339.386719 73.816406 339.386719 C 67.730469 339.386719 62.792969 334.453125 62.792969 328.363281 C 62.792969 322.273438 67.730469 317.339844 73.816406 317.339844 C 79.90625 317.339844 84.84375 322.273438 84.84375 328.363281 "/>
<path style="fill-rule:nonzero;fill:rgb(18.431373%,30.980392%,30.980392%);fill-opacity:1;stroke-width:0.708661;stroke-linecap:round;stroke-linejoin:round;stroke:rgb(18.431373%,30.980392%,30.980392%);stroke-opacity:1;stroke-miterlimit:10;" d="M 135.75 328.363281 C 135.75 334.453125 130.816406 339.386719 124.726562 339.386719 C 118.640625 339.386719 113.703125 334.453125 113.703125 328.363281 C 113.703125 322.273438 118.640625 317.339844 124.726562 317.339844 C 130.816406 317.339844 135.75 322.273438 135.75 328.363281 "/>
<path style="fill:none;stroke-width:0.708661;stroke-linecap:round;stroke-linejoin:round;stroke:rgb(18.431373%,30.980392%,30.980392%);stroke-opacity:1;stroke-miterlimit:10;" d="M 186.660156 328.363281 C 186.660156 334.453125 181.726562 339.386719 175.636719 339.386719 C 169.546875 339.386719 164.613281 334.453125 164.613281 328.363281 C 164.613281 322.273438 169.546875 317.339844 175.636719 317.339844 C 181.726562 317.339844 186.660156 322.273438 186.660156 328.363281 "/>
<path style="fill:none;stroke-width:0.708661;stroke-linecap:round;stroke-linejoin:round;stroke:rgb(18.431373%,30.980392%,30.980392%);stroke-opacity:1;stroke-miterlimit:10;" d="M 237.570312 328.363281 C 237.570312 334.453125 232.632812 339.386719 226.546875 339.386719 C 220.457031 339.386719 215.519531 334.453125 215.519531 328.363281 C 215.519531 322.273438 220.457031 317.339844 226.546875 317.339844 C 232.632812 317.339844 237.570312 322.273438 237.570312 328.363281 "/>
<path style="fill:none;stroke-width:0.708661;stroke-linecap:round;stroke-linejoin:round;stroke:rgb(18.431373%,30.980392%,30.980392%);stroke-opacity:1;stroke-miterlimit:10;" d="M 288.480469 328.363281 C 288.480469 334.453125 283.542969 339.386719 277.453125 339.386719 C 271.367188 339.386719 266.429688 334.453125 266.429688 328.363281 C 266.429688 322.273438 271.367188 317.339844 277.453125 317.339844 C 283.542969 317.339844 288.480469 322.273438 288.480469 328.363281 "/>
<path style="fill:none;stroke-width:0.708661;stroke-linecap:round;stroke-linejoin:round;stroke:rgb(18.431373%,30.980392%,30.980392%);stroke-opacity:1;stroke-miterlimit:10;" d="M 339.386719 328.363281 C 339.386719 334.453125 334.453125 339.386719 328.363281 339.386719 C 322.273438 339.386719 317.339844 334.453125 317.339844 328.363281 C 317.339844 322.273438 322.273438 317.339844 328.363281 317.339844 C 334.453125 317.339844 339.386719 322.273438 339.386719 328.363281 "/>
<path style="fill:none;stroke-width:0.708661;stroke-linecap:round;stroke-linejoin:round;stroke:rgb(18.431373%,30.980392%,30.980392%);stroke-opacity:1;stroke-miterlimit:10;" d="M 390.296875 328.363281 C 390.296875 334.453125 385.359375 339.386719 379.273438 339.386719 C 373.183594 339.386719 368.25 334.453125 368.25 328.363281 C 368.25 322.273438 373.183594 317.339844 379.273438 317.339844 C 385.359375 317.339844 390.296875 322.273438 390.296875 328.363281 "/>
<path style="fill:none;stroke-width:0.708661;stroke-linecap:round;stroke-linejoin:round;stroke:rgb(18.431373%,30.980392%,30.980392%);stroke-opacity:1;stroke-miterlimit:10;" d="M 441.207031 328.363281 C 441.207031 334.453125 436.269531 339.386719 430.183594 339.386719 C 424.09375 339.386719 419.15625 334.453125 419.15625 328.363281 C 419.15625 322.273438 424.09375 317.339844 430.183594 317.339844 C 436.269531 317.339844 441.207031 322.273438 441.207031 328.363281 "/>
<path style="fill-rule:nonzero;fill:rgb(18.431373%,30.980392%,30.980392%);fill-opacity:1;stroke-width:0.708661;stroke-linecap:round;stroke-linejoin:round;stroke:rgb(18.431373%,30.980392%,30.980392%);stroke-opacity:1;stroke-miterlimit:10;" d="M 492.113281 328.363281 C 492.113281 334.453125 487.179688 339.386719 481.089844 339.386719 C 475.003906 339.386719 470.066406 334.453125 470.066406 328.363281 C 470.066406 322.273438 475.003906 317.339844 481.089844 317.339844 C 487.179688 317.339844 492.113281 322.273438 492.113281 328.363281 "/>
<path style="fill:none;stroke-width:0.708661;stroke-linecap:round;stroke-linejoin:round;stroke:rgb(18.431373%,30.980392%,30.980392%);stroke-opacity:1;stroke-miterlimit:10;" d="M 33.933594 277.453125 C 33.933594 283.542969 28.996094 288.480469 22.910156 288.480469 C 16.820312 288.480469 11.886719 283.542969 11.886719 277.453125 C 11.886719 271.367188 16.820312 266.429688 22.910156 266.429688 C 28.996094 266.429688 33.933594 271.367188 33.933594 277.453125 "/>
<path style="fill:none;stroke-width:0.708661;stroke-linecap:round;stroke-linejoin:round;stroke:rgb(18.431373%,30.980392%,30.980392%);stroke-opacity:1;stroke-miterlimit:10;" d="M 84.84375 277.453125 C 84.84375 283.542969 79.90625 288.480469 73.816406 288.480469 C 67.730469 288.480469 62.792969 283.542969 62.792969 277.453125 C 62.792969 271.367188 67.730469 266.429688 73.816406 266.429688 C 79.90625 266.429688 84.84375 271.367188 84.84375 277.453125 "/>
<path style="fill:none;stroke-width:0.708661;stroke-linecap:round;stroke-linejoin:round;stroke:rgb(18.431373%,30.980392%,30.980392%);stroke-opacity:1;stroke-miterlimit:10;" d="M 135.75 277.453125 C 135.75 283.542969 130.816406 288.480469 124.726562 288.480469 C 118.640625 288.480469 113.703125 283.542969 113.703125 277.453125 C 113.703125 271.367188 118.640625 266.429688 124.726562 266.429688 C 130.816406 266.429688 135.75 271.367188 135.75 277.453125 "/>
<path style="fill-rule:nonzero;fill:rgb(18.431373%,30.980392%,30.980392%);fill-opacity:1;stroke-width:0.708661;stroke-linecap:round;stroke-linejoin:round;stroke:rgb(18.431373%,30.980392%,30.980392%);stroke-opacity:1;stroke-miterlimit:10;" d="M 186.660156 277.453125 C 186.660156 283.542969 181.726562 288.480469 175.636719 288.480469 C 169.546875 288.480469 164.613281 283.542969 164.613281 277.453125 C 164.613281 271.367188 169.546875 266.429688 175.636719 266.429688 C 181.726562 266.429688 186.660156 271.367188 186.660156 277.453125 "/>
<path style="fill:none;stroke-width:0.708661;stroke-linecap:round;stroke-linejoin:round;stroke:rgb(18.431373%,30.980392%,30.980392%);stroke-opacity:1;stroke-miterlimit:10;" d="M 237.570312 277.453125 C 237.570312 283.542969 232.632812 288.480469 226.546875 288.480469 C 220.457031 288.480469 215.519531 283.542969 215.519531 277.453125 C 215.519531 271.367188 220.457031 266.429688 226.546875 266.429688 C 232.632812 266.429688 237.570312 271.367188 237.570312 277.453125 "/>
<path style="fill:none;stroke-width:0.708661;stroke-linecap:round;stroke-linejoin:round;stroke:rgb(18.431373%,30.980392%,30.980392%);stroke-opacity:1;stroke-miterlimit:10;" d="M 288.480469 277.453125 C 288.480469 283.542969 283.542969 288.480469 277.453125 288.480469 C 271.367188 288.480469 266.429688 283.542969 266.429688 277.453125 C 266.429688 271.367188 271.367188 266.429688 277.453125 266.429688 C 283.542969 266.429688 288.480469 271.367188 288.480469 277.453125 "/>
<path style="fill:none;stroke-width:0.708661;stroke-linecap:round;stroke-linejoin:round;stroke:rgb(18.431373%,30.980392%,30.980392%);stroke-opacity:1;stroke-miterlimit:10;" d="M 339.386719 277.453125 C 339.386719 283.542969 334.453125 288.480469 328.363281 288.480469 C 322.273438 288.480469 317.339844 283.542969 317.339844 277.453125 C 317.339844 271.367188 322.273438 266.429688 328.363281 266.429688 C 334.453125 266.429688 339.386719 271.367188 339.386719 277.453125 "/>
<path style="fill-rule:nonzero;fill:rgb(18.431373%,30.980392%,30.980392%);fill-opacity:1;stroke-width:0.708661;stroke-linecap:round;stroke-linejoin:round;stroke:rgb(18.431373%,30.980392%,30.980392%);stroke-opacity:1;stroke-miterlimit:10;" d="M 390.296875 277.453125 C 390.296875 283.542969 385.359375 288.480469 379.273438 288.480469 C 373.183594 288.480469 368.25 283.542969 368.25 277.453125 C 368.25 271.367188 373.183594 266.429688 379.273438 266.429688 C 385.359375 266.429688 390.296875 271.367188 390.296875 277.453125 "/>
<path style="fill:none;stroke-width:0.708661;stroke-linecap:round;stroke-linejoin:round;stroke:rgb(18.431373%,30.980392%,30.980392%);stroke-opacity:1;stroke-miterlimit:10;" d="M 441.207031 277.453125 C 441.207031 283.542969 436.269531 288.480469 430.183594 288.480469 C 424.09375 288.480469 419.15625 283.542969 419.15625 277.453125 C 419.15625 271.367188 424.09375 266.429688 430.183594 266.429688 C 436.269531 266.429688 441.207031 271.367188 441.207031 277.453125 "/>
<path style="fill-rule:nonzero;fill:rgb(18.431373%,30.980392%,30.980392%);fill-opacity:1;stroke-width:0.708661;stroke-linecap:round;stroke-linejoin:round;stroke:rgb(18.431373%,30.980392%,30.980392%);stroke-opacity:1;stroke-miterlimit:10;" d="M 492.113281 277.453125 C 492.113281 283.542969 487.179688 288.480469 481.089844 288.480469 C 475.003906 288.480469 470.066406 283.542969 470.066406 277.453125 C 470.066406 271.367188 475.003906 266.429688 481.089844 266.429688 C 487.179688 266.429688 492.113281 271.367188 492.113281 277.453125 "/>
<path style="fill:none;stroke-width:0.708661;stroke-linecap:round;stroke-linejoin:round;stroke:rgb(18.431373%,30.980392%,30.980392%);stroke-opacity:1;stroke-miterlimit:10;" d="M 33.933594 226.546875 C 33.933594 232.632812 28.996094 237.570312 22.910156 237.570312 C 16.820312 237.570312 11.886719 232.632812 11.886719 226.546875 C 11.886719 220.457031 16.820312 215.519531 22.910156 215.519531 C 28.996094 215.519531 33.933594 220.457031 33.933594 226.546875 "/>
<path style="fill:none;stroke-width:0.708661;stroke-linecap:round;stroke-linejoin:round;stroke:rgb(18.431373%,30.980392%,30.980392%);stroke-opacity:1;stroke-miterlimit:10;" d="M 84.84375 226.546875 C 84.84375 232.632812 79.90625 237.570312 73.816406 237.570312 C 67.730469 237.570312 62.792969 232.632812 62.792969 226.546875 C 62.792969 220.457031 67.730469 215.519531 73.816406 215.519531 C 79.90625 215.519531 84.84375 220.457031 84.84375 226.546875 "/>
<path style="fill:none;stroke-width:0.708661;stroke-linecap:round;stroke-linejoin:round;stroke:rgb(18.431373%,30.980392%,30.980392%);stroke-opacity:1;stroke-miterlimit:10;" d="M 135.75 226.546875 C 135.75 232.632812 130.816406 237.570312 124.726562 237.570312 C 118.640625 237.570312 113.703125 232.632812 113.703125 226.546875 C 113.703125 220.457031 118.640625 215.519531 124.726562 215.519531 C 130.816406 215.519531 135.75 220.457031 135.75 226.546875 "/>
<path style="fill-rule:nonzero;fill:rgb(18.431373%,30.980392%,30.980392%);fill-opacity:1;stroke-width:0.708661;stroke-linecap:round;stroke-linejoin:round;stroke:rgb(18.431373%,30.980392%,30.980392%);stroke-opacity:1;stroke-miterlimit:10;" d="M 186.660156 226.546875 C 186.660156 232.632812 181.726562 237.570312 175.636719 237.570312 C 169.546875 237.570312 164.613281 232.632812 164.613281 226.546875 C 164.613281 220.457031 169.546875 215.519531 175.636719 215.519531 C 181.726562 215.519531 186.660156 220.457031 186.660156 226.546875 "/>
<path style="fill-rule:nonzero;fill:rgb(18.431373%,30.980392%,30.980392%);fill-opacity:1;stroke-width:0.708661;stroke-linecap:round;stroke-linejoin:round;stroke:rgb(18.431373%,30.980392%,30.980392%);stroke-opacity:1;stroke-miterlimit:10;" d="M 237.570312 226.546875 C 237.570312 232.632812 232.632812 237.570312 226.546875 237.570312 C 220.457031 237.570312 215.519531 232.632812 215.519531 226.546875 C 215.519531 220.457031 220.457031 215.519531 226.546875 215.519531 C 232.632812 215.519531 237.570312 220.457031 237.570312 226.546875 "/>
<path style="fill:none;stroke-width:0.708661;stroke-linecap:round;stroke-linejoin:round;stroke:rgb(18.431373%,30.980392%,30.980392%);stroke-opacity:1;stroke-miterlimit:10;" d="M 288.480469 226.546875 C 288.480469 232.632812 283.542969 237.570312 277.453125 237.570312 C 271.367188 237.570312 266.429688 232.632812 266.429688 226.546875 C 266.429688 220.457031 271.367188 215.519531 277.453125 215.519531 C 283.542969 215.519531 288.480469 220.457031 288.480469 226.546875 "/>
<path style="fill-rule:nonzero;fill:rgb(18.431373%,30.980392%,30.980392%);fill-opacity:1;stroke-width:0.708661;stroke-linecap:round;stroke-linejoin:round;stroke:rgb(18.431373%,30.980392%,30.980392%);stroke-opacity:1;stroke-miterlimit:10;" d="M 339.386719 226.546875 C 339.386719 232.632812 334.453125 237.570312 328.363281 237.570312 C 322.273438 237.570312 317.339844 232.632812 317.339844 226.546875 C 317.339844 220.457031 322.273438 215.519531 328.363281 215.519531 C 334.453125 215.519531 339.386719 220.457031 339.386719 226.546875 "/>
<path style="fill-rule:nonzero;fill:rgb(18.431373%,30.980392%,30.980392%);fill-opacity:1;stroke-width:0.708661;stroke-linecap:round;stroke-linejoin:round;stroke:rgb(18.431373%,30.980392%,30.980392%);stroke-opacity:1;stroke-miterlimit:10;" d="M 390.296875 226.546875 C 390.296875 232.632812 385.359375 237.570312 379.273438 237.570312 C 373.183594 237.570312 368.25 232.632812 368.25 226.546875 C 368.25 220.457031 373.183594 215.519531 379.273438 215.519531 C 385.359375 215.519531 390.296875 220.457031 390.296875 226.546875 "/>
<path style="fill:none;stroke-width:0.708661;stroke-linecap:round;stroke-linejoin:round;stroke:rgb(18.431373%,30.980392%,30.980392%);stroke-opacity:1;stroke-miterlimit:10;" d="M 441.207031 226.546875 C 441.207031 232.632812 436.269531 237.570312 430.183594 237.570312 C 424.09375 237.570312 419.15625 232.632812 419.15625 226.546875 C 419.15625 220.457031 424.09375 215.519531 430.183594 215.519531 C 436.269531 215.519531 441.207031 220.457031 441.207031 226.546875 "/>
<path style="fill-rule:nonzero;fill:rgb(18.431373%,30.980392%,30.980392%);fill-opacity:1;stroke-width:0.708661;stroke-linecap:round;stroke-linejoin:round;stroke:rgb(18.431373%,30.980392%,30.980392%);stroke-opacity:1;stroke-miterlimit:10;" d="M 492.113281 226.546875 C 492.113281 232.632812 487.179688 237.570312 481.089844 237.570312 C 475.003906 237.570312 470.066406 232.632812 470.066406 226.546875 C 470.066406 220.457031 475.003906 215.519531 481.089844 215.519531 C 487.179688 215.519531 492.113281 220.457031 492.113281 226.546875 "/>
<path style="fill:none;stroke-width:0.708661;stroke-linecap:round;stroke-linejoin:round;stroke:rgb(18.431373%,30.980392%,30.980392%);stroke-opacity:1;stroke-miterlimit:10;" d="M 33.933594 175.636719 C 33.933594 181.726562 28.996094 186.660156 22.910156 186.660156 C 16.820312 186.660156 11.886719 181.726562 11.886719 175.636719 C 11.886719 169.546875 16.820312 164.613281 22.910156 164.613281 C 28.996094 164.613281 33.933594 169.546875 33.933594 175.636719 "/>
<path style="fill-rule:nonzero;fill:rgb(18.431373%,30.980392%,30.980392%);fill-opacity:1;stroke-width:0.708661;stroke-linecap:round;stroke-linejoin:round;stroke:rgb(18.431373%,30.980392%,30.980392%);stroke-opacity:1;stroke-miterlimit:10;" d="M 84.84375 175.636719 C 84.84375 181.726562 79.90625 186.660156 73.816406 186.660156 C 67.730469 186.660156 62.792969 181.726562 62.792969 175.636719 C 62.792969 169.546875 67.730469 164.613281 73.816406 164.613281 C 79.90625 164.613281 84.84375 169.546875 84.84375 175.636719 "/>
<path style="fill-rule:nonzero;fill:rgb(18.431373%,30.980392%,30.980392%);fill-opacity:1;stroke-width:0.708661;stroke-linecap:round;stroke-linejoin:round;stroke:rgb(18.431373%,30.980392%,30.980392%);stroke-opacity:1;stroke-miterlimit:10;" d="M 135.75 175.636719 C 135.75 181.726562 130.816406 186.660156 124.726562 186.660156 C 118.640625 186.660156 113.703125 181.726562 113.703125 175.636719 C 113.703125 169.546875 118.640625 164.613281 124.726562 164.613281 C 130.816406 164.613281 135.75 169.546875 135.75 175.636719 "/>
<path style="fill:none;stroke-width:0.708661;stroke-linecap:round;stroke-linejoin:round;stroke:rgb(18.431373%,30.980392%,30.980392%);stroke-opacity:1;stroke-miterlimit:10;" d="M 186.660156 175.636719 C 186.660156 181.726562 181.726562 186.660156 175.636719 186.660156 C 169.546875 186.660156 164.613281 181.726562 164.613281 175.636719 C 164.613281 169.546875 169.546875 164.613281 175.636719 164.613281 C 181.726562 164.613281 186.660156 169.546875 186.660156 175.636719 "/>
<path style="fill-rule:nonzero;fill:rgb(18.431373%,30.980392%,30.980392%);fill-opacity:1;stroke-width:0.708661;stroke-linecap:round;stroke-linejoin:round;stroke:rgb(18.431373%,30.980392%,30.980392%);stroke-opacity:1;stroke-miterlimit:10;" d="M 237.570312 175.636719 C 237.570312 181.726562 232.632812 186.660156 226.546875 186.660156 C 220.457031 186.660156 215.519531 181.726562 215.519531 175.636719 C 215.519531 169.546875 220.457031 164.613281 226.546875 164.613281 C 232.632812 164.613281 237.570312 169.546875 237.570312 175.636719 "/>
<path style="fill:none;stroke-width:0.708661;stroke-linecap:round;stroke-linejoin:round;stroke:rgb(18.431373%,30.980392%,30.980392%);stroke-opacity:1;stroke-miterlimit:10;" d="M 288.480469 175.636719 C 288.480469 181.726562 283.542969 186.660156 277.453125 186.660156 C 271.367188 186.660156 266.429688 181.726562 266.429688 175.636719 C 266.429688 169.546875 271.367188 164.613281 277.453125 164.613281 C 283.542969 164.613281 288.480469 169.546875 288.480469 175.636719 "/>
<path style="fill:none;stroke-width:0.708661;stroke-linecap:round;stroke-linejoin:round;stroke:rgb(18.431373%,30.980392%,30.980392%);stroke-opacity:1;stroke-miterlimit:10;" d="M 339.386719 175.636719 C 339.386719 181.726562 334.453125 186.660156 328.363281 186.660156 C 322.273438 186.660156 317.339844 181.726562 317.339844 175.636719 C 317.339844 169.546875 322.273438 164.613281 328.363281 164.613281 C 334.453125 164.613281 339.386719 169.546875 339.386719 175.636719 "/>
<path style="fill:none;stroke-width:0.708661;stroke-linecap:round;stroke-linejoin:round;stroke:rgb(18.431373%,30.980392%,30.980392%);stroke-opacity:1;stroke-miterlimit:10;" d="M 390.296875 175.636719 C 390.296875 181.726562 385.359375 186.660156 379.273438 186.660156 C 373.183594 186.660156 368.25 181.726562 368.25 175.636719 C 368.25 169.546875 373.183594 164.613281 379.273438 164.613281 C 385.359375 164.613281 390.296875 169.546875 390.296875 175.636719 "/>
<path style="fill:none;stroke-width:0.708661;stroke-linecap:round;stroke-linejoin:round;stroke:rgb(18.431373%,30.980392%,30.980392%);stroke-opacity:1;stroke-miterlimit:10;" d="M 441.207031 175.636719 C 441.207031 181.726562 436.269531 186.660156 430.183594 186.660156 C 424.09375 186.660156 419.15625 181.726562 419.15625 175.636719 C 419.15625 169.546875 424.09375 164.613281 430.183594 164.613281 C 436.269531 164.613281 441.207031 169.546875 441.207031 175.636719 "/>
<path style="fill:none;stroke-width:0.708661;stroke-linecap:round;stroke-linejoin:round;stroke:rgb(18.431373%,30.980392%,30.980392%);stroke-opacity:1;stroke-miterlimit:10;" d="M 492.113281 175.636719 C 492.113281 181.726562 487.179688 186.660156 481.089844 186.660156 C 475.003906 186.660156 470.066406 181.726562 470.066406 175.636719 C 470.066406 169.546875 475.003906 164.613281 481.089844 164.613281 C 487.179688 164.613281 492.113281 169.546875 492.113281 175.636719 "/>
<path style="fill:none;stroke-width:0.708661;stroke-linecap:round;stroke-linejoin:round;stroke:rgb(18.431373%,30.980392%,30.980392%);stroke-opacity:1;stroke-miterlimit:10;" d="M 33.933594 124.726562 C 33.933594 130.816406 28.996094 135.75 22.910156 135.75 C 16.820312 135.75 11.886719 130.816406 11.886719 124.726562 C 11.886719 118.640625 16.820312 113.703125 22.910156 113.703125 C 28.996094 113.703125 33.933594 118.640625 33.933594 124.726562 "/>
<path style="fill-rule:nonzero;fill:rgb(18.431373%,30.980392%,30.980392%);fill-opacity:1;stroke-width:0.708661;stroke-linecap:round;stroke-linejoin:round;stroke:rgb(18.431373%,30.980392%,30.980392%);stroke-opacity:1;stroke-miterlimit:10;" d="M 84.84375 124.726562 C 84.84375 130.816406 79.90625 135.75 73.816406 135.75 C 67.730469 135.75 62.792969 130.816406 62.792969 124.726562 C 62.792969 118.640625 67.730469 113.703125 73.816406 113.703125 C 79.90625 113.703125 84.84375 118.640625 84.84375 124.726562 "/>
<path style="fill-rule:nonzero;fill:rgb(18.431373%,30.980392%,30.980392%);fill-opacity:1;stroke-width:0.708661;stroke-linecap:round;stroke-linejoin:round;stroke:rgb(18.431373%,30.980392%,30.980392%);stroke-opacity:1;stroke-miterlimit:10;" d="M 135.75 124.726562 C 135.75 130.816406 130.816406 135.75 124.726562 135.75 C 118.640625 135.75 113.703125 130.816406 113.703125 124.726562 C 113.703125 118.640625 118.640625 113.703125 124.726562 113.703125 C 130.816406 113.703125 135.75 118.640625 135.75 124.726562 "/>
<path style="fill:none;stroke-width:0.708661;stroke-linecap:round;stroke-linejoin:round;stroke:rgb(18.431373%,30.980392%,30.980392%);stroke-opacity:1;stroke-miterlimit:10;" d="M 186.660156 124.726562 C 186.660156 130.816406 181.726562 135.75 175.636719 135.75 C 169.546875 135.75 164.613281 130.816406 164.613281 124.726562 C 164.613281 118.640625 169.546875 113.703125 175.636719 113.703125 C 181.726562 113.703125 186.660156 118.640625 186.660156 124.726562 "/>
<path style="fill:none;stroke-width:0.708661;stroke-linecap:round;stroke-linejoin:round;stroke:rgb(18.431373%,30.980392%,30.980392%);stroke-opacity:1;stroke-miterlimit:10;" d="M 237.570312 124.726562 C 237.570312 130.816406 232.632812 135.75 226.546875 135.75 C 220.457031 135.75 215.519531 130.816406 215.519531 124.726562 C 215.519531 118.640625 220.457031 113.703125 226.546875 113.703125 C 232.632812 113.703125 237.570312 118.640625 237.570312 124.726562 "/>
<path style="fill-rule:nonzero;fill:rgb(18.431373%,30.980392%,30.980392%);fill-opacity:1;stroke-width:0.708661;stroke-linecap:round;stroke-linejoin:round;stroke:rgb(18.431373%,30.980392%,30.980392%);stroke-opacity:1;stroke-miterlimit:10;" d="M 288.480469 124.726562 C 288.480469 130.816406 283.542969 135.75 277.453125 135.75 C 271.367188 135.75 266.429688 130.816406 266.429688 124.726562 C 266.429688 118.640625 271.367188 113.703125 277.453125 113.703125 C 283.542969 113.703125 288.480469 118.640625 288.480469 124.726562 "/>
<path style="fill:none;stroke-width:0.708661;stroke-linecap:round;stroke-linejoin:round;stroke:rgb(18.431373%,30.980392%,30.980392%);stroke-opacity:1;stroke-miterlimit:10;" d="M 339.386719 124.726562 C 339.386719 130.816406 334.453125 135.75 328.363281 135.75 C 322.273438 135.75 317.339844 130.816406 317.339844 124.726562 C 317.339844 118.640625 322.273438 113.703125 328.363281 113.703125 C 334.453125 113.703125 339.386719 118.640625 339.386719 124.726562 "/>
<path style="fill-rule:nonzero;fill:rgb(18.431373%,30.980392%,30.980392%);fill-opacity:1;stroke-width:0.708661;stroke-linecap:round;stroke-linejoin:round;stroke:rgb(18.431373%,30.980392%,30.980392%);stroke-opacity:1;stroke-miterlimit:10;" d="M 390.296875 124.726562 C 390.296875 130.816406 385.359375 135.75 379.273438 135.75 C 373.183594 135.75 368.25 130.816406 368.25 124.726562 C 368.25 118.640625 373.183594 113.703125 379.273438 113.703125 C 385.359375 113.703125 390.296875 118.640625 390.296875 124.726562 "/>
<path style="fill-rule:nonzero;fill:rgb(18.431373%,30.980392%,30.980392%);fill-opacity:1;stroke-width:0.708661;stroke-linecap:round;stroke-linejoin:round;stroke:rgb(18.431373%,30.980392%,30.980392%);stroke-opacity:1;stroke-miterlimit:10;" d="M 441.207031 124.726562 C 441.207031 130.816406 436.269531 135.75 430.183594 135.75 C 424.09375 135.75 419.15625 130.816406 419.15625 124.726562 C 419.15625 118.640625 424.09375 113.703125 430.183594 113.703125 C 436.269531 113.703125 441.207031 118.640625 441.207031 124.726562 "/>
<path style="fill:none;stroke-width:0.708661;stroke-linecap:round;stroke-linejoin:round;stroke:rgb(18.431373%,30.980392%,30.980392%);stroke-opacity:1;stroke-miterlimit:10;" d="M 492.113281 124.726562 C 492.113281 130.816406 487.179688 135.75 481.089844 135.75 C 475.003906 135.75 470.066406 130.816406 470.066406 124.726562 C 470.066406 118.640625 475.003906 113.703125 481.089844 113.703125 C 487.179688 113.703125 492.113281 118.640625 492.113281 124.726562 "/>
<path style="fill:none;stroke-width:0.708661;stroke-linecap:round;stroke-linejoin:round;stroke:rgb(18.431373%,30.980392%,30.980392%);stroke-opacity:1;stroke-miterlimit:10;" d="M 33.933594 73.816406 C 33.933594 79.90625 28.996094 84.84375 22.910156 84.84375 C 16.820312 84.84375 11.886719 79.90625 11.886719 73.816406 C 11.886719 67.730469 16.820312 62.792969 22.910156 62.792969 C 28.996094 62.792969 33.933594 67.730469 33.933594 73.816406 "/>
<path style="fill:none;stroke-width:0.708661;stroke-linecap:round;stroke-linejoin:round;stroke:rgb(18.431373%,30.980392%,30.980392%);stroke-opacity:1;stroke-miterlimit:10;" d="M 84.84375 73.816406 C 84.84375 79.90625 79.90625 84.84375 73.816406 84.84375 C 67.730469 84.84375 62.792969 79.90625 62.792969 73.816406 C 62.792969 67.730469 67.730469 62.792969 73.816406 62.792969 C 79.90625 62.792969 84.84375 67.730469 84.84375 73.816406 "/>
<path style="fill:none;stroke-width:0.708661;stroke-linecap:round;stroke-linejoin:round;stroke:rgb(18.431373%,30.980392%,30.980392%);stroke-opacity:1;stroke-miterlimit:10;" d="M 135.75 73.816406 C 135.75 79.90625 130.816406 84.84375 124.726562 84.84375 C 118.640625 84.84375 113.703125 79.90625 113.703125 73.816406 C 113.703125 67.730469 118.640625 62.792969 124.726562 62.792969 C 130.816406 62.792969 135.75 67.730469 135.75 73.816406 "/>
<path style="fill:none;stroke-width:0.708661;stroke-linecap:round;stroke-linejoin:round;stroke:rgb(18.431373%,30.980392%,30.980392%);stroke-opacity:1;stroke-miterlimit:10;" d="M 186.660156 73.816406 C 186.660156 79.90625 181.726562 84.84375 175.636719 84.84375 C 169.546875 84.84375 164.613281 79.90625 164.613281 73.816406 C 164.613281 67.730469 169.546875 62.792969 175.636719 62.792969 C 181.726562 62.792969 186.660156 67.730469 186.660156 73.816406 "/>
<path style="fill:none;stroke-width:0.708661;stroke-linecap:round;stroke-linejoin:round;stroke:rgb(18.431373%,30.980392%,30.980392%);stroke-opacity:1;stroke-miterlimit:10;" d="M 237.570312 73.816406 C 237.570312 79.90625 232.632812 84.84375 226.546875 84.84375 C 220.457031 84.84375 215.519531 79.90625 215.519531 73.816406 C 215.519531 67.730469 220.457031 62.792969 226.546875 62.792969 C 232.632812 62.792969 237.570312 67.730469 237.570312 73.816406 "/>
<path style="fill:none;stroke-width:0.708661;stroke-linecap:round;stroke-linejoin:round;stroke:rgb(18.431373%,30.980392%,30.980392%);stroke-opacity:1;stroke-miterlimit:10;" d="M 288.480469 73.816406 C 288.480469 79.90625 283.542969 84.84375 277.453125 84.84375 C 271.367188 84.84375 266.429688 79.90625 266.429688 73.816406 C 266.429688 67.730469 271.367188 62.792969 277.453125 62.792969 C 283.542969 62.792969 288.480469 67.730469 288.480469 73.816406 "/>
<path style="fill-rule:nonzero;fill:rgb(18.431373%,30.980392%,30.980392%);fill-opacity:1;stroke-width:0.708661;stroke-linecap:round;stroke-linejoin:round;stroke:rgb(18.431373%,30.980392%,30.980392%);stroke-opacity:1;stroke-miterlimit:10;" d="M 339.386719 73.816406 C 339.386719 79.90625 334.453125 84.84375 328.363281 84.84375 C 322.273438 84.84375 317.339844 79.90625 317.339844 73.816406 C 317.339844 67.730469 322.273438 62.792969 328.363281 62.792969 C 334.453125 62.792969 339.386719 67.730469 339.386719 73.816406 "/>
<path style="fill:none;stroke-width:0.708661;stroke-linecap:round;stroke-linejoin:round;stroke:rgb(18.431373%,30.980392%,30.980392%);stroke-opacity:1;stroke-miterlimit:10;" d="M 390.296875 73.816406 C 390.296875 79.90625 385.359375 84.84375 379.273438 84.84375 C 373.183594 84.84375 368.25 79.90625 368.25 73.816406 C 368.25 67.730469 373.183594 62.792969 379.273438 62.792969 C 385.359375 62.792969 390.296875 67.730469 390.296875 73.816406 "/>
<path style="fill:none;stroke-width:0.708661;stroke-linecap:round;stroke-linejoin:round;stroke:rgb(18.431373%,30.980392%,30.980392%);stroke-opacity:1;stroke-miterlimit:10;" d="M 441.207031 73.816406 C 441.207031 79.90625 436.269531 84.84375 430.183594 84.84375 C 424.09375 84.84375 419.15625 79.90625 419.15625 73.816406 C 419.15625 67.730469 424.09375 62.792969 430.183594 62.792969 C 436.269531 62.792969 441.207031 67.730469 441.207031 73.816406 "/>
<path style="fill-rule:nonzero;fill:rgb(18.431373%,30.980392%,30.980392%);fill-opacity:1;stroke-width:0.708661;stroke-linecap:round;stroke-linejoin:round;stroke:rgb(18.431373%,30.980392%,30.980392%);stroke-opacity:1;stroke-miterlimit:10;" d="M 492.113281 73.816406 C 492.113281 79.90625 487.179688 84.84375 481.089844 84.84375 C 475.003906 84.84375 470.066406 79.90625 470.066406 73.816406 C 470.066406 67.730469 475.003906 62.792969 481.089844 62.792969 C 487.179688 62.792969 492.113281 67.730469 492.113281 73.816406 "/>
<path style="fill:none;stroke-width:0.708661;stroke-linecap:round;stroke-linejoin:round;stroke:rgb(18.431373%,30.980392%,30.980392%);stroke-opacity:1;stroke-miterlimit:10;" d="M 33.933594 22.910156 C 33.933594 28.996094 28.996094 33.933594 22.910156 33.933594 C 16.820312 33.933594 11.886719 28.996094 11.886719 22.910156 C 11.886719 16.820312 16.820312 11.886719 22.910156 11.886719 C 28.996094 11.886719 33.933594 16.820312 33.933594 22.910156 "/>
<path style="fill:none;stroke-width:0.708661;stroke-linecap:round;stroke-linejoin:round;stroke:rgb(18.431373%,30.980392%,30.980392%);stroke-opacity:1;stroke-miterlimit:10;" d="M 84.84375 22.910156 C 84.84375 28.996094 79.90625 33.933594 73.816406 33.933594 C 67.730469 33.933594 62.792969 28.996094 62.792969 22.910156 C 62.792969 16.820312 67.730469 11.886719 73.816406 11.886719 C 79.90625 11.886719 84.84375 16.820312 84.84375 22.910156 "/>
<path style="fill:none;stroke-width:0.708661;stroke-linecap:round;stroke-linejoin:round;stroke:rgb(18.431373%,30.980392%,30.980392%);stroke-opacity:1;stroke-miterlimit:10;" d="M 135.75 22.910156 C 135.75 28.996094 130.816406 33.933594 124.726562 33.933594 C 118.640625 33.933594 113.703125 28.996094 113.703125 22.910156 C 113.703125 16.820312 118.640625 11.886719 124.726562 11.886719 C 130.816406 11.886719 135.75 16.820312 135.75 22.910156 "/>
<path style="fill-rule:nonzero;fill:rgb(18.431373%,30.980392%,30.980392%);fill-opacity:1;stroke-width:0.708661;stroke-linecap:round;stroke-linejoin:round;stroke:rgb(18.431373%,30.980392%,30.980392%);stroke-opacity:1;stroke-miterlimit:10;" d="M 186.660156 22.910156 C 186.660156 28.996094 181.726562 33.933594 175.636719 33.933594 C 169.546875 33.933594 164.613281 28.996094 164.613281 22.910156 C 164.613281 16.820312 169.546875 11.886719 175.636719 11.886719 C 181.726562 11.886719 186.660156 16.820312 186.660156 22.910156 "/>
<path style="fill-rule:nonzero;fill:rgb(18.431373%,30.980392%,30.980392%);fill-opacity:1;stroke-width:0.708661;stroke-linecap:round;stroke-linejoin:round;stroke:rgb(18.431373%,30.980392%,30.980392%);stroke-opacity:1;stroke-miterlimit:10;" d="M 237.570312 22.910156 C 237.570312 28.996094 232.632812 33.933594 226.546875 33.933594 C 220.457031 33.933594 215.519531 28.996094 215.519531 22.910156 C 215.519531 16.820312 220.457031 11.886719 226.546875 11.886719 C 232.632812 11.886719 237.570312 16.820312 237.570312 22.910156 "/>
<path style="fill:none;stroke-width:0.708661;stroke-linecap:round;stroke-linejoin:round;stroke:rgb(18.431373%,30.980392%,30.980392%);stroke-opacity:1;stroke-miterlimit:10;" d="M 288.480469 22.910156 C 288.480469 28.996094 283.542969 33.933594 277.453125 33.933594 C 271.367188 33.933594 266.429688 28.996094 266.429688 22.910156 C 266.429688 16.820312 271.367188 11.886719 277.453125 11.886719 C 283.542969 11.886719 288.480469 16.820312 288.480469 22.910156 "/>
<path style="fill-rule:nonzero;fill:rgb(18.431373%,30.980392%,30.980392%);fill-opacity:1;stroke-width:0.708661;stroke-linecap:round;stroke-linejoin:round;stroke:rgb(18.431373%,30.980392%,30.980392%);stroke-opacity:1;stroke-miterlimit:10;" d="M 339.386719 22.910156 C 339.386719 28.996094 334.453125 33.933594 328.363281 33.933594 C 322.273438 33.933594 317.339844 28.996094 317.339844 22.910156 C 317.339844 16.820312 322.273438 11.886719 328.363281 11.886719 C 334.453125 11.886719 339.386719 16.820312 339.386719 22.910156 "/>
<path style="fill-rule:nonzero;fill:rgb(18.431373%,30.980392%,30.980392%);fill-opacity:1;stroke-width:0.708661;stroke-linecap:round;stroke-linejoin:round;stroke:rgb(18.431373%,30.980392%,30.980392%);stroke-opacity:1;stroke-miterlimit:10;" d="M 390.296875 22.910156 C 390.296875 28.996094 385.359375 33.933594 379.273438 33.933594 C 373.183594 33.933594 368.25 28.996094 368.25 22.910156 C 368.25 16.820312 373.183594 11.886719 379.273438 11.886719 C 385.359375 11.886719 390.296875 16.820312 390.296875 22.910156 "/>
<path style="fill:none;stroke-width:0.708661;stroke-linecap:round;stroke-linejoin:round;stroke:rgb(18.431373%,30.980392%,30.980392%);stroke-opacity:1;stroke-miterlimit:10;" d="M 441.207031 22.910156 C 441.207031 28.996094 436.269531 33.933594 430.183594 33.933594 C 424.09375 33.933594 419.15625 28.996094 419.15625 22.910156 C 419.15625 16.820312 424.09375 11.886719 430.183594 11.886719 C 436.269531 11.886719 441.207031 16.820312 441.207031 22.910156 "/>
<path style="fill:none;stroke-width:0.708661;stroke-linecap:round;stroke-linejoin:round;stroke:rgb(18.431373%,30.980392%,30.980392%);stroke-opacity:1;stroke-miterlimit:10;" d="M 492.113281 22.910156 C 492.113281 28.996094 487.179688 33.933594 481.089844 33.933594 C 475.003906 33.933594 470.066406 28.996094 470.066406 22.910156 C 470.066406 16.820312 475.003906 11.886719 481.089844 11.886719 C 487.179688 11.886719 492.113281 16.820312 492.113281 22.910156 "/>
</g>
</svg>
